<?xml version="1.0" standalone="no"?>
<!DOCTYPE svg PUBLIC "-//W3C//DTD SVG 20010904//EN"
 "http://www.w3.org/TR/2001/REC-SVG-20010904/DTD/svg10.dtd">
<svg version="1.0" xmlns="http://www.w3.org/2000/svg"
 width="432pt" height="432pt" viewBox="0 0 432 432"
 preserveAspectRatio="xMidYMid meet">
<metadata>
Created by potrace 1.8, written by Peter Selinger 2001-2007
</metadata>
<g transform="translate(0,432) scale(0.072000,-0.072000)"
fill="#000000" stroke="none">
<path d="M3000 6000 l-3000 0 0 -3000 0 -3000 3000 0 3000 0 0 3000 0 3000
-3000 0z m-505 -125 c66 -2 152 -11 190 -19 39 -8 99 -27 135 -41 36 -15 90
-39 120 -54 30 -16 71 -39 90 -52 19 -13 52 -37 72 -52 20 -16 62 -59 92 -95
29 -37 75 -107 101 -156 26 -49 51 -96 55 -105 5 -9 16 -38 25 -66 9 -27 23
-104 31 -170 9 -66 19 -208 24 -315 4 -107 11 -233 15 -280 4 -47 13 -114 21
-150 9 -36 21 -78 29 -95 7 -16 19 -50 26 -75 7 -25 28 -72 45 -105 17 -33 60
-109 94 -170 35 -60 71 -125 82 -143 10 -18 39 -65 65 -105 26 -40 51 -73 55
-75 5 -2 8 -8 8 -14 0 -5 22 -33 49 -61 26 -29 66 -72 87 -97 21 -25 47 -52
57 -61 9 -9 17 -20 17 -25 0 -5 17 -30 39 -56 21 -26 55 -81 75 -123 20 -41
36 -79 36 -83 0 -5 7 -22 15 -39 8 -16 36 -88 61 -159 26 -71 53 -151 61 -179
8 -27 19 -68 25 -90 5 -22 18 -98 28 -170 10 -71 19 -159 19 -195 1 -36 -6
-120 -15 -185 -8 -66 -22 -140 -30 -164 -8 -24 -13 -50 -10 -58 3 -7 11 -13
19 -13 7 0 25 -12 39 -27 14 -16 29 -37 33 -48 5 -11 11 -63 14 -115 5 -79 12
-106 36 -155 19 -38 61 -91 115 -146 47 -47 105 -99 130 -115 25 -15 63 -37
84 -46 22 -10 45 -26 52 -36 7 -9 15 -33 18 -53 3 -19 1 -51 -4 -69 -5 -19
-24 -55 -41 -80 -17 -25 -49 -59 -72 -75 -23 -17 -52 -36 -66 -43 -13 -6 -44
-23 -70 -36 -25 -13 -73 -37 -106 -52 -33 -16 -96 -49 -140 -74 -44 -25 -102
-61 -129 -80 -27 -19 -72 -55 -100 -79 -28 -24 -95 -85 -149 -135 -57 -53
-124 -104 -159 -123 -38 -19 -90 -36 -141 -43 -44 -7 -110 -10 -151 -7 -39 4
-96 15 -126 25 -30 11 -76 33 -101 50 -26 18 -58 47 -72 65 -14 19 -30 49 -34
68 -8 31 -14 34 -64 45 -30 6 -61 14 -69 17 -8 3 -80 9 -160 12 -80 4 -273 7
-430 7 -157 0 -312 -5 -345 -11 -33 -5 -80 -11 -105 -12 -25 -1 -59 -8 -77
-15 -17 -7 -36 -22 -43 -33 -6 -12 -18 -21 -26 -21 -8 0 -28 -7 -43 -15 -16
-8 -53 -37 -82 -65 -30 -28 -76 -62 -104 -75 -27 -13 -77 -28 -110 -33 -33 -5
-85 -6 -115 -2 -31 4 -76 15 -100 23 -25 9 -76 27 -115 42 -38 14 -87 35 -110
45 -22 10 -69 27 -105 38 -36 11 -135 36 -220 57 -85 21 -207 52 -270 70 -63
19 -176 50 -250 69 -74 20 -147 41 -162 48 -15 7 -35 30 -44 50 -11 25 -15 54
-12 91 2 29 14 73 25 98 11 24 27 64 36 89 9 25 21 70 27 100 7 30 10 91 7
135 -3 44 -11 148 -18 232 -9 119 -10 157 0 180 7 16 29 47 49 67 20 21 48 43
62 49 14 5 90 13 170 16 97 4 155 11 175 21 16 8 38 29 48 45 10 17 37 61 59
99 39 66 40 71 27 100 -9 21 -14 68 -14 141 0 69 5 127 15 155 8 25 32 71 53
103 22 32 68 114 103 183 35 69 84 183 109 252 25 70 54 150 64 177 10 28 25
77 32 110 7 33 34 99 59 147 26 51 87 140 145 211 55 68 127 159 160 202 33
43 75 95 93 115 17 21 32 41 32 44 0 4 11 22 24 39 12 18 34 55 47 82 14 29
28 87 35 140 6 50 8 95 4 100 -4 6 -11 111 -14 235 -4 124 -9 248 -12 275 -2
28 -7 156 -11 285 -5 198 -3 249 11 325 10 50 22 104 28 120 5 17 13 39 18 50
4 11 15 37 24 59 9 21 36 68 60 105 24 36 64 84 88 107 23 22 61 52 83 64 22
13 42 27 45 30 3 3 30 18 61 33 31 15 60 27 66 27 5 0 24 7 41 16 17 8 60 19
94 24 35 5 117 7 183 5z"/>
<path d="M2452 5859 c-31 -1 -91 -7 -132 -14 -41 -7 -97 -23 -125 -35 -27 -12
-66 -29 -85 -37 -19 -9 -67 -38 -107 -65 -40 -27 -89 -73 -111 -101 -21 -29
-55 -81 -74 -117 -20 -36 -46 -96 -57 -135 -12 -38 -28 -115 -36 -170 -8 -55
-15 -147 -14 -205 0 -58 4 -157 9 -220 6 -63 15 -216 21 -340 6 -124 10 -282
10 -351 0 -113 -3 -132 -26 -184 -14 -32 -46 -88 -70 -124 -25 -36 -60 -85
-78 -107 -17 -23 -60 -76 -94 -118 -35 -42 -63 -79 -63 -82 0 -3 -21 -31 -47
-62 -27 -32 -50 -59 -53 -62 -3 -3 -21 -25 -41 -50 -19 -25 -52 -78 -73 -119
-21 -41 -46 -106 -56 -145 -10 -39 -41 -138 -70 -221 -29 -82 -79 -204 -111
-270 -32 -66 -72 -144 -88 -174 -16 -29 -38 -63 -49 -75 -10 -11 -27 -48 -37
-81 -11 -35 -19 -92 -19 -135 0 -41 3 -88 7 -103 6 -22 12 -27 25 -21 9 4 41
15 71 25 30 11 68 19 85 19 17 0 50 -9 72 -19 23 -10 84 -61 136 -113 53 -52
107 -112 122 -134 14 -21 44 -64 65 -94 22 -30 54 -80 72 -110 18 -30 48 -82
67 -115 19 -33 49 -82 67 -110 17 -27 45 -70 61 -94 16 -24 41 -62 55 -85 22
-35 30 -41 55 -38 16 2 49 10 74 19 25 9 57 28 73 42 22 20 27 33 27 73 0 39
-7 60 -36 106 -20 31 -47 66 -59 77 -12 11 -31 27 -41 35 -11 9 -57 45 -103
80 -46 36 -92 70 -103 77 -12 6 -23 15 -27 20 -3 5 -31 29 -62 54 -30 24 -73
58 -94 74 -22 17 -94 83 -160 147 -67 65 -128 130 -135 145 -8 15 -32 43 -52
61 -25 22 -38 42 -38 58 0 13 11 42 25 64 22 35 25 50 25 140 0 70 6 123 21
177 12 43 25 82 30 88 5 5 9 16 9 24 0 8 23 67 52 130 28 64 56 123 63 131 6
8 17 29 24 45 8 17 19 41 25 55 6 14 16 30 21 35 6 6 27 19 48 29 21 10 45 15
53 12 8 -3 14 -14 14 -25 0 -11 -14 -31 -31 -43 -17 -13 -40 -41 -50 -63 -10
-22 -23 -47 -28 -55 -6 -8 -30 -58 -54 -110 -25 -52 -56 -126 -70 -165 -14
-38 -35 -100 -47 -137 -20 -62 -21 -76 -11 -195 6 -70 15 -153 21 -183 6 -30
19 -64 30 -75 20 -19 20 -19 20 62 0 45 5 85 10 88 6 3 10 40 10 81 0 42 5 84
10 95 6 10 14 49 17 87 3 37 12 72 18 77 7 6 15 18 18 27 4 10 2 18 -3 18 -6
0 -10 6 -10 13 0 6 12 23 25 36 14 13 25 27 25 31 0 5 22 55 50 112 27 56 75
150 105 208 47 90 54 110 49 142 -5 28 -3 39 8 43 10 4 13 15 10 31 -3 19 0
24 16 24 17 0 22 12 38 98 14 80 28 118 80 219 34 67 92 167 128 222 44 67 66
110 66 130 0 16 -4 33 -10 36 -5 3 -10 21 -10 40 0 19 4 36 9 39 4 3 11 24 14
48 4 29 0 52 -13 77 -10 20 -27 45 -39 55 -17 15 -21 31 -21 78 0 45 5 67 22
91 13 18 31 42 41 53 17 21 17 23 -2 60 -11 22 -29 77 -39 124 -12 50 -19 113
-17 155 1 39 7 93 12 120 5 28 18 68 27 90 9 22 31 55 48 73 18 17 40 32 49
32 10 0 21 5 24 10 3 6 22 10 41 10 19 0 49 -7 65 -16 17 -8 48 -31 70 -51 22
-20 47 -52 55 -72 9 -20 22 -56 31 -80 9 -27 13 -69 11 -116 l-3 -72 92 5 c53
3 104 0 122 -6 29 -10 30 -10 21 7 -5 10 -16 21 -23 24 -10 4 -13 17 -10 44 2
21 7 70 12 109 6 47 17 84 34 111 14 22 45 56 69 75 24 19 63 42 88 51 25 9
71 17 102 17 39 0 69 -7 99 -22 23 -13 63 -47 88 -76 25 -29 57 -81 70 -115
19 -49 25 -87 29 -182 4 -113 3 -124 -22 -179 -14 -32 -23 -63 -19 -70 4 -6
20 -28 36 -48 25 -31 28 -42 23 -75 -4 -21 -10 -66 -14 -100 -4 -34 -13 -68
-20 -75 -6 -6 -12 -18 -12 -25 0 -6 11 -29 25 -49 14 -20 25 -50 25 -66 0 -16
25 -77 56 -136 30 -59 62 -114 69 -122 7 -8 27 -51 44 -95 17 -44 40 -114 51
-155 11 -41 27 -108 35 -148 14 -66 22 -82 85 -160 41 -52 89 -128 118 -187
27 -55 54 -113 60 -130 6 -16 18 -59 27 -95 9 -36 20 -81 25 -100 5 -19 14
-66 20 -105 7 -38 14 -167 17 -285 3 -124 1 -245 -5 -285 -6 -38 -14 -82 -18
-97 -4 -18 -2 -28 5 -28 6 0 11 5 11 11 0 7 21 35 47 63 26 28 61 59 78 68 16
9 37 17 45 18 8 0 27 27 43 61 15 34 27 69 27 78 0 9 4 21 9 27 4 5 16 52 27
104 12 63 18 139 18 225 0 129 -1 131 -37 208 -20 42 -37 79 -37 81 0 2 -24
39 -53 82 -33 50 -81 102 -128 141 -41 35 -83 63 -95 63 -11 0 -36 16 -55 36
-33 34 -33 36 -15 50 11 8 31 14 44 14 14 0 41 -12 60 -27 19 -16 65 -48 101
-73 46 -32 79 -65 113 -115 27 -38 62 -95 80 -125 17 -30 39 -68 48 -85 9 -16
25 -65 35 -109 14 -60 16 -99 12 -166 -4 -48 -12 -120 -18 -161 -6 -41 -15
-83 -20 -94 -4 -11 -16 -46 -24 -78 -9 -32 -23 -70 -31 -85 -8 -15 -14 -41
-14 -59 0 -25 -6 -35 -32 -47 -17 -9 -41 -16 -53 -16 -13 0 -28 -7 -35 -15 -7
-8 -20 -15 -29 -15 -10 0 -26 -10 -37 -23 -10 -13 -25 -33 -31 -45 -8 -14 -13
-62 -13 -131 0 -102 2 -113 28 -155 18 -29 41 -51 67 -63 30 -14 63 -18 140
-17 78 0 112 5 156 22 30 12 75 38 98 58 23 20 60 64 83 98 22 33 49 80 59
104 12 28 25 42 37 42 13 0 22 12 30 38 6 21 18 74 27 117 9 49 15 135 15 220
0 78 -7 178 -15 225 -8 47 -24 123 -36 170 -12 47 -27 99 -34 115 -8 17 -28
72 -45 124 -17 52 -40 115 -52 140 -11 25 -36 79 -54 119 -19 41 -34 76 -34
79 0 3 -18 25 -40 50 -22 25 -40 50 -40 55 0 4 -43 58 -96 118 -54 61 -101
110 -105 110 -5 0 -9 7 -9 15 0 8 -3 15 -7 15 -5 0 -21 23 -38 51 -16 28 -45
73 -62 100 -18 27 -33 51 -33 53 0 3 -15 31 -34 63 -19 32 -48 83 -65 113 -18
30 -52 96 -76 145 -24 50 -58 135 -75 190 -24 78 -32 131 -40 245 -5 80 -10
188 -10 241 0 52 -9 169 -20 260 -11 90 -29 196 -41 234 -12 39 -28 77 -35 86
-8 8 -14 21 -14 27 0 6 -14 35 -32 64 -17 29 -43 71 -57 92 -14 22 -46 61 -70
88 -24 27 -71 68 -104 90 -33 22 -96 58 -141 79 -45 21 -118 49 -162 62 -43
14 -112 30 -152 36 -40 6 -98 11 -130 10z m374 -214 c10 -1 37 -6 58 -10 29
-6 53 -22 88 -58 27 -29 46 -57 43 -64 -2 -8 0 -11 5 -8 6 3 10 -5 10 -19 0
-14 -4 -26 -10 -26 -5 0 -7 -6 -5 -12 3 -8 -16 -24 -47 -40 -29 -15 -69 -34
-88 -41 -20 -8 -52 -13 -72 -12 -19 1 -40 5 -47 9 -7 5 -11 42 -11 101 0 52 4
105 10 119 5 14 18 34 28 44 10 10 27 18 38 17z m28 -495 c28 0 54 -8 76 -22
19 -13 44 -42 57 -66 15 -26 22 -51 18 -62 -4 -11 -15 -20 -25 -20 -10 0 -41
22 -68 49 -28 28 -62 57 -76 67 -14 9 -26 25 -26 35 0 16 8 19 44 19z m-787
-20 c13 0 34 -5 46 -11 12 -6 41 -30 65 -52 25 -25 42 -50 42 -64 0 -19 -5
-23 -28 -23 -21 0 -39 11 -65 40 -19 22 -44 40 -55 40 -11 0 -24 6 -30 13 -6
7 -9 23 -5 35 4 15 13 22 30 22z m1133 -951 c8 0 26 -6 40 -13 14 -8 53 -29
88 -46 37 -19 67 -41 72 -54 4 -12 15 -28 24 -35 9 -7 16 -26 16 -41 0 -19
-13 -41 -40 -69 -22 -22 -46 -41 -52 -41 -7 0 -31 7 -53 14 -24 8 -41 22 -44
33 -2 10 -12 30 -22 45 -11 14 -19 30 -19 36 0 5 -8 20 -18 33 -10 13 -24 43
-30 65 -7 23 -12 46 -12 52 0 6 8 13 18 15 9 3 24 5 32 6z m523 -1269 c16 0
37 -4 47 -10 10 -5 23 -25 29 -43 8 -24 8 -42 1 -64 -6 -16 -21 -35 -33 -41
-12 -6 -35 -13 -51 -17 -18 -4 -37 0 -52 10 -13 8 -24 24 -24 34 0 10 7 37 15
60 8 22 20 47 27 56 7 8 26 14 41 15z m279 -890 c29 0 70 -6 93 -14 22 -8 66
-19 98 -26 47 -9 67 -20 103 -54 26 -25 44 -52 44 -65 0 -12 -8 -25 -17 -28
-10 -4 -36 -21 -57 -40 -22 -18 -46 -33 -53 -33 -7 0 -13 -6 -13 -14 0 -8 -7
-17 -16 -20 -9 -3 -20 -4 -25 0 -5 3 -9 14 -9 25 0 10 5 19 10 19 6 0 10 11
10 24 0 14 5 28 10 31 6 3 10 16 10 29 0 12 -9 32 -20 44 -12 12 -29 22 -38
22 -10 0 -27 7 -38 15 -10 8 -29 15 -42 15 -12 0 -25 7 -29 16 -4 10 -14 13
-32 10 -14 -3 -32 -2 -40 3 -8 5 -11 16 -8 25 5 12 20 16 59 16z"/>
<path d="M2835 5620 c-15 0 -30 -9 -39 -22 -8 -13 -17 -57 -21 -99 -3 -41 -3
-87 0 -102 5 -17 14 -27 26 -27 10 0 31 5 46 11 15 7 52 22 81 35 29 13 56 24
61 24 5 0 12 7 15 16 4 9 -4 35 -18 58 -13 22 -35 51 -48 63 -12 12 -36 26
-51 32 -16 6 -39 11 -52 11z"/>
<path d="M2853 5130 c-13 0 -10 -6 12 -22 17 -13 47 -40 67 -60 21 -21 42 -38
47 -38 6 0 -3 20 -20 45 -17 25 -44 52 -59 60 -16 8 -37 15 -47 15z"/>
<path d="M3214 4154 c-10 3 -25 2 -33 -3 -9 -6 -10 -11 -2 -15 6 -4 11 -18 11
-30 0 -13 6 -29 14 -35 8 -7 26 -36 40 -65 14 -29 26 -58 26 -64 0 -6 3 -13 8
-15 4 -3 22 -8 40 -12 29 -6 36 -3 67 31 19 21 35 44 35 51 0 8 -7 16 -15 19
-8 3 -23 21 -34 40 -12 20 -28 34 -39 34 -11 0 -37 13 -59 29 -22 16 -48 31
-59 35z"/>
<path d="M3733 2888 c-14 2 -27 -5 -37 -20 -8 -13 -16 -41 -18 -63 -2 -32 1
-40 15 -43 10 -2 32 2 48 8 18 8 32 23 36 38 3 15 0 36 -8 51 -8 14 -24 27
-36 29z"/>
<path d="M4120 1966 c-24 5 -24 5 -6 -10 11 -9 30 -16 42 -16 14 0 30 -14 48
-40 14 -22 21 -40 15 -40 -8 0 -8 -4 1 -15 10 -12 10 -15 -1 -15 -11 0 -11 -2
1 -10 8 -5 18 -10 21 -10 4 0 22 14 40 31 l34 31 -42 38 c-29 25 -56 40 -85
44 -24 4 -54 9 -68 12z"/>
<path d="M2727 5059 c-12 0 -44 -7 -71 -16 -28 -8 -69 -28 -92 -44 -23 -15
-54 -49 -68 -73 -18 -31 -30 -71 -37 -127 -9 -72 -8 -84 9 -113 10 -17 22 -44
26 -59 4 -19 20 -34 56 -52 27 -14 52 -25 55 -25 3 0 1 9 -5 20 -6 11 -11 50
-11 87 0 42 5 80 15 98 8 17 28 42 43 55 15 14 37 30 48 36 14 8 38 9 74 3 30
-4 54 -10 55 -11 1 -2 13 -27 26 -56 19 -42 24 -71 25 -132 l0 -79 -39 -36
c-21 -19 -52 -39 -68 -43 -29 -7 -27 -9 38 -29 38 -12 83 -24 99 -26 27 -5 32
-1 47 31 9 21 25 57 33 82 14 36 16 66 10 150 -5 91 -10 114 -40 175 -19 40
-52 88 -77 111 -24 23 -62 49 -86 58 -23 9 -52 16 -65 15z"/>
<path d="M2001 5019 c-20 0 -45 -4 -56 -8 -11 -5 -32 -21 -47 -36 -15 -15 -37
-52 -49 -84 -14 -38 -23 -89 -26 -156 -4 -81 -1 -116 16 -184 12 -46 26 -90
32 -97 6 -7 14 -25 18 -39 l7 -27 49 45 50 46 -22 16 c-13 9 -23 25 -23 36 0
10 -5 19 -10 19 -6 0 -19 14 -29 31 -11 18 -19 51 -20 85 0 36 6 69 20 98 14
31 30 48 49 55 16 5 44 8 62 6 17 -3 35 -10 39 -17 4 -7 17 -24 28 -37 12 -13
21 -37 21 -53 0 -15 5 -28 10 -28 6 0 10 -25 10 -55 0 -30 3 -55 8 -55 4 0 14
6 23 13 8 7 24 33 34 59 13 36 16 61 11 100 -4 29 -16 78 -27 108 -11 30 -31
67 -44 82 -13 16 -41 39 -61 53 -23 16 -50 25 -73 24z"/>
<path d="M2704 4830 c-1 0 -16 -12 -34 -26 -17 -15 -37 -39 -45 -55 -9 -16
-15 -56 -15 -97 0 -55 4 -72 21 -91 11 -12 33 -27 47 -33 15 -6 41 -12 57 -13
17 -1 43 4 58 12 15 8 37 28 47 46 11 18 20 42 20 54 0 16 -4 21 -15 16 -9 -3
-24 2 -35 12 -15 14 -29 16 -69 10 -47 -6 -51 -5 -51 14 0 13 10 26 25 33 14
6 25 15 25 19 0 4 -10 15 -21 23 -16 11 -20 22 -17 45 3 17 3 31 2 31z"/>
<path d="M2807 4817 c-7 6 -26 6 -49 0 -23 -5 -38 -15 -38 -24 0 -8 11 -24 25
-35 14 -11 25 -24 25 -30 0 -6 -8 -17 -17 -24 -16 -12 -13 -13 25 -10 30 2 42
0 42 -10 0 -7 5 -16 10 -19 8 -5 9 10 4 47 -4 29 -11 58 -16 65 -5 7 -7 16 -4
21 3 6 0 14 -7 19z"/>
<path d="M1961 4800 c-5 0 -18 -21 -30 -46 -17 -36 -21 -57 -17 -100 3 -31 8
-60 12 -65 3 -6 19 -7 35 -4 22 5 29 3 29 -9 0 -9 -4 -16 -9 -16 -4 0 -8 -10
-7 -22 1 -14 8 -23 17 -22 8 1 38 18 67 38 35 26 52 45 52 59 -1 20 -2 20 -11
5 -5 -10 -19 -18 -31 -18 -11 0 -29 10 -39 22 -11 11 -19 29 -19 38 0 9 -11
39 -26 65 -14 26 -23 54 -20 61 3 8 2 14 -3 14z"/>
<path d="M2017 4800 c-1 0 -10 -5 -20 -11 -16 -9 -16 -13 -3 -37 7 -15 18 -38
24 -52 5 -14 14 -37 21 -52 6 -16 17 -28 26 -28 8 0 15 8 14 18 0 10 -3 12 -6
5 -2 -7 -9 -13 -14 -13 -5 0 -9 12 -9 26 0 21 3 24 21 19 20 -7 21 -5 15 21
-4 16 -10 42 -13 57 -3 18 -15 32 -30 38 -13 5 -25 9 -26 9z"/>
<path d="M2353 4595 c-69 4 -111 1 -140 -9 -24 -8 -67 -29 -95 -47 -29 -18
-73 -51 -97 -74 -25 -22 -71 -64 -102 -93 -31 -29 -62 -66 -69 -81 -6 -16 -10
-43 -8 -61 2 -27 9 -34 39 -44 20 -7 63 -33 95 -58 33 -25 74 -51 92 -58 21
-8 76 -13 150 -12 65 0 130 6 145 11 16 6 34 11 40 11 7 0 35 9 62 19 28 11
68 28 90 39 21 11 45 18 52 15 7 -3 13 -13 13 -22 0 -10 -17 -27 -38 -39 -21
-11 -60 -26 -87 -32 -28 -5 -67 -18 -88 -27 -30 -13 -43 -14 -57 -5 -10 6 -20
7 -22 2 -2 -5 -44 -12 -95 -15 -51 -3 -94 -1 -97 4 -4 5 -19 4 -36 -2 -25 -10
-36 -8 -65 7 -19 11 -49 32 -67 48 -17 15 -33 28 -36 28 -2 0 19 -27 48 -60
28 -32 76 -81 106 -109 33 -30 77 -58 112 -71 39 -15 79 -21 125 -21 37 0 87
6 110 12 23 7 46 16 52 21 5 4 18 8 30 8 11 0 58 29 105 63 47 35 118 82 158
105 41 23 78 42 83 42 4 0 23 7 42 16 18 9 41 30 50 48 8 17 18 54 21 81 3 28
8 61 11 75 5 19 -2 34 -25 63 -19 22 -40 37 -54 37 -12 0 -54 11 -92 24 -39
14 -95 34 -125 46 -30 11 -88 37 -129 57 -41 20 -83 40 -92 44 -10 5 -62 11
-115 14z m507 -278 c8 -1 16 -11 18 -23 2 -15 -6 -23 -33 -34 -19 -7 -35 -17
-35 -21 0 -4 -16 -13 -35 -19 -19 -6 -39 -9 -45 -5 -5 3 -10 10 -10 15 0 5 28
28 63 50 34 22 69 39 77 37z"/>
<path d="M2957 4109 c-1 -1 -54 -28 -117 -60 -63 -33 -116 -64 -118 -69 -2 -6
-8 -10 -13 -10 -6 0 -15 -5 -22 -10 -7 -6 -40 -30 -75 -55 -35 -25 -85 -54
-111 -65 -27 -10 -66 -20 -87 -22 -22 -2 -41 -6 -44 -10 -3 -4 -39 -2 -80 3
-45 5 -96 20 -130 36 -37 19 -86 60 -152 128 -72 73 -100 97 -109 88 -6 -6
-15 -69 -19 -139 -5 -71 -11 -142 -13 -159 -3 -16 -11 -47 -19 -67 -8 -20 -26
-49 -42 -64 -15 -16 -36 -46 -47 -69 -11 -22 -29 -56 -40 -75 -14 -26 -18 -47
-14 -86 2 -27 10 -64 16 -82 6 -17 26 -41 44 -52 18 -11 46 -20 62 -20 16 0
37 -6 47 -13 11 -8 16 -22 14 -36 -1 -12 -14 -29 -28 -36 -14 -8 -38 -20 -55
-28 -16 -7 -47 -24 -68 -36 -21 -12 -56 -37 -77 -57 -21 -20 -53 -47 -72 -61
-18 -13 -43 -29 -55 -34 -13 -5 -23 -17 -23 -28 0 -10 -7 -24 -15 -31 -8 -7
-15 -17 -15 -22 0 -6 -8 -22 -18 -36 -10 -15 -46 -90 -80 -167 -33 -77 -72
-181 -87 -231 -24 -84 -26 -109 -28 -301 l-2 -209 63 -61 c34 -33 83 -78 108
-99 25 -22 63 -52 84 -69 21 -16 75 -58 119 -93 44 -34 92 -73 105 -85 13 -12
49 -42 79 -67 29 -25 73 -69 95 -99 40 -52 42 -56 42 -127 0 -55 -5 -81 -20
-107 -16 -27 -38 -42 -98 -68 -42 -18 -79 -34 -81 -36 -2 -1 12 -26 31 -55 19
-29 55 -74 80 -100 25 -25 64 -56 87 -67 22 -12 85 -30 138 -41 54 -11 131
-20 171 -20 41 0 131 7 200 15 70 9 145 20 167 26 22 6 60 18 85 27 25 9 70
29 100 45 30 16 82 45 115 63 33 19 82 54 109 79 27 25 65 55 83 67 18 13 38
37 44 53 6 17 10 52 9 79 -1 27 -6 60 -11 74 -5 13 -10 70 -11 126 0 65 4 111
12 126 7 14 26 40 43 58 17 17 37 32 43 32 7 0 25 5 39 12 24 11 25 14 25 102
0 68 4 97 16 115 9 13 32 29 50 37 18 8 67 14 107 14 l74 0 17 71 c13 53 17
114 17 242 0 94 -3 214 -6 266 -3 53 -10 114 -15 136 -5 22 -16 69 -25 105 -8
36 -24 92 -34 125 -11 33 -20 50 -20 39 -1 -15 -9 -23 -28 -27 -16 -3 -40 -3
-55 0 -16 3 -62 39 -110 85 -63 61 -102 89 -163 117 -44 21 -125 51 -180 66
-55 15 -131 36 -170 48 -38 11 -78 28 -89 38 -13 12 -17 25 -12 42 3 14 14 28
23 32 10 3 56 9 103 11 47 2 110 9 140 15 30 6 72 20 93 31 31 16 53 19 116
17 l78 -4 -13 65 c-8 36 -17 81 -22 100 -5 19 -20 60 -33 90 -13 30 -41 86
-63 123 -21 38 -54 84 -74 103 -34 33 -35 35 -23 72 10 30 10 47 -3 95 -8 32
-25 74 -36 93 -12 19 -22 33 -23 33z m-715 -789 c13 0 32 -7 43 -16 11 -8 37
-19 58 -25 21 -5 41 -17 44 -25 3 -8 -3 -24 -12 -34 -11 -12 -31 -20 -49 -20
-20 0 -44 -10 -65 -27 -20 -17 -35 -41 -40 -63 -6 -31 -11 -35 -36 -35 -30 0
-30 1 -33 63 -3 62 -4 64 -37 78 -23 9 -35 21 -35 33 0 12 11 23 31 30 18 6
47 11 64 11 20 0 35 6 39 15 3 8 16 15 28 15z m-129 -592 c13 -2 25 -14 31
-30 6 -18 5 -45 -2 -80 -7 -29 -14 -159 -17 -288 -3 -129 -8 -311 -11 -404 -4
-120 -2 -175 6 -191 6 -12 10 -35 8 -51 -3 -25 -7 -29 -39 -32 -30 -2 -41 2
-57 23 -20 25 -20 36 -16 343 3 174 9 335 14 357 5 22 11 79 14 127 4 48 11
111 17 140 6 29 16 61 21 71 6 11 18 17 31 15z"/>
<path d="M2246 3300 c-2 0 -9 -7 -16 -15 -7 -9 -29 -15 -52 -15 -22 0 -49 -5
-60 -11 -20 -11 -20 -12 10 -25 18 -7 36 -24 41 -38 6 -13 8 -43 6 -66 -3 -29
-1 -40 7 -38 7 3 16 18 20 36 5 17 25 45 45 61 21 17 49 31 63 31 14 0 34 7
44 15 15 11 16 15 5 16 -8 1 -17 1 -22 0 -4 -1 -25 10 -47 24 -22 14 -41 25
-44 25z"/>
<path d="M2110 2710 c-5 0 -11 -8 -14 -17 -3 -10 -11 -49 -17 -88 -6 -38 -14
-106 -18 -150 -3 -44 -9 -85 -13 -91 -4 -6 -8 -158 -9 -338 -1 -246 2 -330 11
-341 7 -8 24 -15 37 -15 23 0 25 2 17 33 -4 17 -8 109 -8 202 0 94 3 217 7
275 5 58 8 173 7 257 0 84 4 172 10 197 5 25 7 52 4 60 -3 9 -10 16 -14 16z"/>
<path d="M1837 3736 c-2 3 -24 -26 -49 -63 -25 -37 -55 -87 -67 -111 -12 -24
-17 -41 -12 -37 6 3 24 32 42 64 17 33 39 68 49 78 9 11 23 29 29 42 7 12 11
25 8 27z"/>
<path d="M1695 3500 c-3 0 -21 -33 -40 -74 -19 -40 -35 -85 -35 -99 0 -14 -4
-37 -10 -51 -5 -14 -12 -52 -15 -86 -4 -47 -16 -81 -51 -146 -36 -65 -42 -83
-27 -78 10 4 34 19 53 33 19 14 45 35 56 46 12 11 36 31 54 45 18 13 42 29 54
35 11 6 30 17 41 23 11 6 37 18 58 26 20 8 37 21 37 29 0 8 -7 18 -16 21 -9 3
-31 6 -50 6 -19 0 -34 4 -34 9 0 5 -9 13 -21 16 -11 4 -29 21 -40 38 -10 18
-19 49 -19 69 0 20 -4 39 -9 42 -5 3 -5 21 -1 40 4 18 10 39 14 45 4 6 4 11 1
11z"/>
<path d="M3155 3315 c-27 3 -57 2 -65 -2 -8 -3 -17 -10 -20 -14 -3 -4 -39 -15
-80 -23 -41 -8 -118 -17 -170 -21 -56 -4 -98 -11 -102 -18 -4 -7 -6 -16 -5
-21 2 -5 10 -13 18 -17 8 -4 25 -12 39 -18 14 -6 61 -20 105 -31 44 -11 112
-30 150 -41 39 -11 95 -32 125 -47 30 -14 80 -45 110 -69 30 -23 75 -63 100
-88 25 -25 55 -48 68 -52 13 -3 33 -1 45 5 12 6 16 11 10 11 -7 1 -13 10 -13
21 0 11 -4 20 -9 20 -5 0 -13 10 -17 23 -4 12 -17 36 -29 52 -12 17 -25 37
-29 45 -3 8 -15 29 -26 45 -11 17 -27 44 -36 60 -9 17 -30 49 -47 72 -19 27
-28 49 -24 62 3 12 0 24 -6 28 -7 4 -19 9 -27 10 -8 2 -37 6 -65 8z"/>
<path d="M3572 3172 c-9 3 -23 3 -30 0 -9 -3 -6 -10 9 -23 12 -10 30 -19 39
-19 10 0 51 -27 93 -60 42 -32 88 -75 103 -94 16 -19 41 -57 56 -83 16 -26 39
-69 52 -94 14 -25 34 -73 45 -107 15 -45 21 -87 21 -155 0 -52 -5 -132 -11
-178 -6 -46 -19 -115 -30 -153 -10 -38 -17 -71 -15 -73 2 -2 13 27 24 64 11
37 23 86 27 108 4 22 8 51 10 65 2 14 9 68 15 121 10 83 10 102 -4 143 -9 25
-16 57 -16 69 0 12 -18 53 -40 91 -22 37 -40 71 -40 74 0 3 -11 20 -25 38 -14
18 -25 37 -25 42 0 6 -4 12 -8 14 -4 2 -21 20 -37 41 -15 21 -49 52 -74 70
-25 17 -63 45 -84 63 -21 18 -46 34 -55 36z"/>
<path d="M1374 3040 c-5 0 -18 -6 -29 -12 -11 -7 -26 -17 -32 -24 -7 -7 -13
-17 -13 -23 0 -6 -4 -11 -10 -11 -5 0 -10 -6 -10 -14 0 -7 -20 -54 -45 -105
-25 -50 -45 -94 -45 -96 0 -3 -8 -24 -19 -48 -10 -23 -30 -70 -45 -105 -14
-35 -26 -73 -26 -85 0 -12 -7 -35 -16 -52 -12 -23 -15 -56 -13 -143 2 -73 -1
-116 -7 -120 -6 -4 -18 -21 -27 -38 -16 -30 -15 -31 26 -78 23 -26 83 -90 132
-143 50 -52 124 -125 167 -162 42 -36 106 -88 142 -116 36 -27 66 -53 66 -57
0 -5 5 -8 11 -8 5 0 24 -14 42 -31 18 -17 59 -49 92 -71 50 -34 55 -36 30 -11
-16 16 -68 58 -114 94 -46 35 -94 73 -107 84 -12 11 -48 40 -79 65 -32 25 -90
76 -129 113 l-71 68 1 212 c0 127 -2 196 -7 172 -4 -22 -8 -63 -8 -92 -1 -28
-5 -54 -10 -58 -5 -3 -8 -48 -7 -100 1 -52 0 -95 -3 -95 -3 0 -24 15 -45 34
-37 31 -41 39 -54 117 -8 46 -16 138 -19 204 -4 95 -1 130 13 175 9 30 20 64
24 75 5 11 14 36 21 55 6 19 21 55 31 80 11 25 50 107 86 182 37 76 72 138 78
138 6 0 17 7 24 15 7 8 9 15 4 15z"/>
<path d="M993 1929 c-15 4 -46 4 -68 1 -22 -3 -54 -13 -71 -22 -16 -9 -46 -41
-66 -70 -20 -30 -45 -72 -56 -95 -12 -22 -34 -54 -50 -69 -16 -16 -50 -35 -75
-41 -26 -7 -96 -13 -156 -13 -59 0 -123 -5 -142 -11 -19 -7 -47 -23 -63 -38
-15 -14 -33 -37 -38 -51 -6 -14 -11 -50 -11 -80 0 -30 6 -115 13 -189 7 -73
10 -177 7 -230 -4 -78 -11 -112 -40 -186 -20 -49 -41 -111 -48 -136 -11 -40
-10 -50 7 -85 11 -22 32 -45 49 -53 17 -8 46 -18 65 -22 19 -4 94 -24 165 -44
72 -20 162 -44 200 -55 39 -10 158 -41 266 -69 107 -27 220 -59 250 -71 29
-12 81 -32 114 -45 33 -13 91 -35 130 -50 38 -14 101 -28 140 -31 51 -5 86 -2
128 11 32 9 70 23 85 31 15 7 55 42 90 76 34 34 62 68 62 75 0 7 8 13 17 13
13 0 14 3 5 12 -7 7 -12 16 -12 20 0 4 5 7 12 6 6 -2 15 8 19 22 4 14 7 57 8
97 1 39 -4 75 -9 78 -6 4 -8 10 -5 15 3 4 -2 13 -11 20 -8 7 -13 19 -10 26 2
6 -15 46 -40 88 -24 41 -44 80 -44 86 0 5 -4 10 -9 10 -5 0 -19 20 -31 44 -11
24 -28 50 -36 56 -7 7 -14 19 -14 26 0 8 -9 22 -21 32 -12 9 -54 67 -93 127
-40 61 -96 147 -124 193 -29 46 -52 87 -52 92 0 4 -40 68 -89 141 -49 74 -119
166 -155 206 -37 39 -88 88 -116 108 -27 20 -62 40 -77 44z"/>
<path d="M3507 1838 c-51 1 -100 -2 -109 -8 -10 -6 -23 -20 -29 -31 -7 -13
-11 -80 -10 -173 0 -83 -4 -242 -9 -352 -5 -111 -14 -222 -19 -247 -6 -24 -17
-100 -26 -168 -8 -68 -20 -149 -25 -179 -6 -30 -10 -93 -10 -140 -1 -47 4
-111 9 -142 5 -32 21 -74 34 -93 14 -20 49 -52 80 -71 32 -20 90 -43 138 -55
63 -16 101 -20 149 -15 37 3 94 15 129 26 34 12 83 33 107 48 24 15 85 68 136
118 51 49 115 107 143 129 27 22 63 50 80 62 16 12 59 39 95 61 36 22 99 57
140 79 41 21 91 45 110 53 19 8 62 29 95 48 33 19 79 53 103 76 24 22 52 58
63 78 10 21 19 53 19 72 0 19 -3 41 -6 50 -3 8 -29 27 -57 42 -29 15 -70 39
-92 55 -22 15 -71 58 -110 96 -38 37 -87 93 -107 123 -21 30 -45 81 -53 113
-8 32 -15 87 -15 122 0 47 -6 73 -21 99 -12 20 -32 39 -45 42 -13 4 -28 13
-33 22 -7 13 -12 9 -25 -22 -9 -21 -16 -41 -16 -45 -1 -3 -27 -40 -58 -81 -32
-41 -80 -90 -106 -107 -26 -18 -77 -42 -113 -53 -41 -13 -93 -20 -142 -20 -42
0 -94 5 -116 11 -22 6 -54 22 -71 35 -18 13 -44 45 -60 71 -26 44 -28 56 -28
148 0 73 -3 103 -13 110 -8 6 -55 11 -106 13z"/>
<path d="M3328 1421 l-3 174 -31 -3 c-20 -2 -44 -16 -67 -40 -27 -27 -39 -51
-46 -87 -5 -28 -8 -77 -5 -110 2 -33 11 -97 19 -143 15 -79 15 -85 -2 -115
-10 -17 -42 -51 -71 -74 -29 -24 -50 -43 -46 -43 4 0 28 17 53 37 25 21 72 62
105 93 32 30 67 73 77 96 17 36 19 60 17 215z"/>
<path d="M3299 1130 c-2 -1 -33 -28 -69 -60 -36 -33 -103 -88 -150 -122 -47
-34 -116 -80 -155 -102 -38 -23 -96 -54 -128 -69 -32 -15 -64 -27 -72 -27 -7
0 -16 -4 -19 -9 -3 -5 -47 -16 -98 -25 -51 -10 -115 -22 -141 -27 -26 -5 -97
-9 -157 -9 -60 0 -144 5 -187 11 -43 7 -107 25 -142 40 -35 16 -66 29 -68 29
-2 0 3 -12 11 -27 9 -16 25 -56 36 -90 11 -34 20 -81 20 -103 0 -23 -5 -62
-12 -88 -6 -26 -18 -58 -27 -72 -12 -19 -6 -17 27 13 23 20 45 37 50 38 4 0
36 2 72 5 36 2 92 9 125 14 35 5 231 8 465 5 316 -3 420 -8 470 -19 36 -9 68
-16 73 -16 4 0 7 58 7 129 0 70 4 141 10 157 5 16 15 74 21 129 6 55 15 125
19 155 5 30 11 74 15 98 4 23 6 42 4 42z"/>
</g>
</svg>
