<?xml version="1.0" encoding="UTF-8" standalone="no"?>
<!-- Generator: Adobe Illustrator 16.0.0, SVG Export Plug-In . SVG Version: 6.00 Build 0)  -->

<svg
   xmlns:dc="http://purl.org/dc/elements/1.1/"
   xmlns:cc="http://creativecommons.org/ns#"
   xmlns:rdf="http://www.w3.org/1999/02/22-rdf-syntax-ns#"
   xmlns:svg="http://www.w3.org/2000/svg"
   xmlns="http://www.w3.org/2000/svg"
   xmlns:sodipodi="http://sodipodi.sourceforge.net/DTD/sodipodi-0.dtd"
   xmlns:inkscape="http://www.inkscape.org/namespaces/inkscape"
   version="1.1"
   id="Capa_1"
   x="0px"
   y="0px"
   width="32.218px"
   height="30.861px"
   viewBox="0 0 32.218 30.861"
   style="enable-background:new 0 0 32.218 30.861;"
   xml:space="preserve"
   inkscape:version="0.48.2 r9819"
   sodipodi:docname="Flaticon_172.svg"><metadata
   id="metadata39"><rdf:RDF><cc:Work
       rdf:about=""><dc:format>image/svg+xml</dc:format><dc:type
         rdf:resource="http://purl.org/dc/dcmitype/StillImage" /></cc:Work></rdf:RDF></metadata><defs
   id="defs37" /><sodipodi:namedview
   pagecolor="#ffffff"
   bordercolor="#666666"
   borderopacity="1"
   objecttolerance="10"
   gridtolerance="10"
   guidetolerance="10"
   inkscape:pageopacity="0"
   inkscape:pageshadow="2"
   inkscape:window-width="640"
   inkscape:window-height="480"
   id="namedview35"
   showgrid="false"
   inkscape:zoom="7.6471922"
   inkscape:cx="16.108999"
   inkscape:cy="15.4305"
   inkscape:window-x="0"
   inkscape:window-y="0"
   inkscape:window-maximized="0"
   inkscape:current-layer="Capa_1" />
<path
   style="fill:#000000;"
   d="M32.144,11.725c-0.492-1.543-3.211-1.898-6.09-2.279c-1.578-0.205-3.371-0.443-3.912-0.842  c-0.547-0.396-1.305-2.035-1.977-3.482C18.942,2.49,17.786,0.008,16.169,0h-0.033c-1.602,0.027-2.773,2.479-4.014,5.082  c-0.684,1.439-1.465,3.07-2.008,3.461C9.564,8.938,7.771,9.158,6.189,9.35c-2.879,0.35-5.6,0.678-6.11,2.213  c-0.505,1.539,1.481,3.426,3.586,5.424c1.157,1.098,2.466,2.34,2.671,2.98c0.205,0.641-0.143,2.416-0.447,3.979  c-0.558,2.844-1.084,5.537,0.22,6.498c0.312,0.225,0.702,0.338,1.167,0.328c1.332-0.023,3.245-1.057,5.098-2.061  c1.387-0.76,2.959-1.613,3.66-1.623c0.678,0.002,2.254,0.881,3.646,1.654c1.891,1.053,3.852,2.141,5.186,2.119  c0.416-0.008,0.77-0.115,1.059-0.322c1.314-0.945,0.814-3.637,0.285-6.492c-0.291-1.566-0.615-3.344-0.408-3.984  c0.211-0.637,1.535-1.867,2.703-2.955C30.626,15.131,32.634,13.268,32.144,11.725z M21.483,18.832H10.734V14.75h10.749V18.832z"
   id="path3" />
<g
   id="g5">
</g>
<g
   id="g7">
</g>
<g
   id="g9">
</g>
<g
   id="g11">
</g>
<g
   id="g13">
</g>
<g
   id="g15">
</g>
<g
   id="g17">
</g>
<g
   id="g19">
</g>
<g
   id="g21">
</g>
<g
   id="g23">
</g>
<g
   id="g25">
</g>
<g
   id="g27">
</g>
<g
   id="g29">
</g>
<g
   id="g31">
</g>
<g
   id="g33">
</g>
</svg>