<?xml version="1.0" encoding="UTF-8" standalone="no"?>
<!-- Created with Inkscape (http://www.inkscape.org/) -->

<svg
   xmlns:dc="http://purl.org/dc/elements/1.1/"
   xmlns:cc="http://creativecommons.org/ns#"
   xmlns:rdf="http://www.w3.org/1999/02/22-rdf-syntax-ns#"
   xmlns:svg="http://www.w3.org/2000/svg"
   xmlns="http://www.w3.org/2000/svg"
   xmlns:sodipodi="http://sodipodi.sourceforge.net/DTD/sodipodi-0.dtd"
   xmlns:inkscape="http://www.inkscape.org/namespaces/inkscape"
   width="80.5"
   height="80.5"
   id="svg8477"
   version="1.1"
   inkscape:version="0.48.2 r9819"
   sodipodi:docname="ligne-decoupe-horizontale.svg">
  <defs
     id="defs8479" />
  <sodipodi:namedview
     id="base"
     pagecolor="#ffffff"
     bordercolor="#666666"
     borderopacity="1.0"
     inkscape:pageopacity="0.0"
     inkscape:pageshadow="2"
     inkscape:zoom="5.6"
     inkscape:cx="39.575028"
     inkscape:cy="20.22031"
     inkscape:document-units="px"
     inkscape:current-layer="layer1"
     showgrid="false"
     fit-margin-top="0"
     fit-margin-left="0"
     fit-margin-right="0"
     fit-margin-bottom="0"
     inkscape:window-width="1080"
     inkscape:window-height="1898"
     inkscape:window-x="-8"
     inkscape:window-y="-8"
     inkscape:window-maximized="1" />
  <metadata
     id="metadata8482">
    <rdf:RDF>
      <cc:Work
         rdf:about="">
        <dc:format>image/svg+xml</dc:format>
        <dc:type
           rdf:resource="http://purl.org/dc/dcmitype/StillImage" />
        <dc:title></dc:title>
      </cc:Work>
    </rdf:RDF>
  </metadata>
  <g
     inkscape:label="Calque 1"
     inkscape:groupmode="layer"
     id="layer1"
     transform="translate(-714.22804,-594.34773)">
    <g
       transform="matrix(0,-3.1070586,3.1070586,0,389.80528,702.3792)"
       id="g4028">
      <path
         sodipodi:nodetypes="cc"
         inkscape:connector-curvature="0"
         id="path3239"
         d="m 34,117.36218 -10,0"
         style="fill:none;stroke:#000000;stroke-width:1.00100005;stroke-linecap:butt;stroke-linejoin:miter;stroke-miterlimit:4;stroke-opacity:1;stroke-dasharray:2.002, 2.002;stroke-dashoffset:0" />
      <g
         transform="matrix(0.99911884,0,0,0.99911884,-35.111646,-19.866269)"
         id="g3200">
        <path
           inkscape:connector-curvature="0"
           d="m 65.669325,144.00914 c 1.220687,0.67733 2.652002,-0.547 2.652002,-0.547 l -15.915001,-9.098 c 2.681999,-4.637 -5.318002,-7.637 -7.052002,-4.01001 -1.160082,2.42655 -0.290941,4.4553 3.436,5.54 6.298001,1.83301 11.900059,5.3523 16.879001,8.11501 z m -14.859999,-10.537 c -1.279001,1.745 -5.045984,-0.34417 -3.865001,-2.209 1.180984,-1.86483 5.144001,0.464 3.865001,2.209 z"
           id="path3"
           sodipodi:nodetypes="sccssszzz" />
        <path
           inkscape:connector-curvature="0"
           d="m 65.669326,130.71522 c 1.220684,-0.67732 2.651999,0.54701 2.651999,0.54701 l -15.914998,9.09799 c 2.681999,4.637 -5.318002,7.637 -7.052002,4.01001 -1.160082,-2.42655 -0.290941,-4.4553 3.436,-5.54 6.298001,-1.83301 11.900059,-5.3523 16.879001,-8.11501 z m -14.859999,10.537 c -1.279001,-1.745 -5.045984,0.34417 -3.865001,2.209 1.180982,1.86484 5.143998,-0.46399 3.865001,-2.209 z"
           id="path3-1"
           sodipodi:nodetypes="sccssszzz" />
      </g>
      <path
         sodipodi:nodetypes="cc"
         inkscape:connector-curvature="0"
         id="path3239-2"
         d="m 16,117.36218 -6,0"
         style="fill:none;stroke:#000000;stroke-width:1.00100005;stroke-linecap:butt;stroke-linejoin:miter;stroke-miterlimit:4;stroke-opacity:1;stroke-dasharray:2.002, 2.002;stroke-dashoffset:0" />
    </g>
  </g>
</svg>
