<?xml version="1.0" encoding="UTF-8" standalone="no"?>
<!-- Generator: Adobe Illustrator 17.0.0, SVG Export Plug-In . SVG Version: 6.00 Build 0)  -->

<svg
   xmlns:dc="http://purl.org/dc/elements/1.1/"
   xmlns:cc="http://creativecommons.org/ns#"
   xmlns:rdf="http://www.w3.org/1999/02/22-rdf-syntax-ns#"
   xmlns:svg="http://www.w3.org/2000/svg"
   xmlns="http://www.w3.org/2000/svg"
   xmlns:sodipodi="http://sodipodi.sourceforge.net/DTD/sodipodi-0.dtd"
   xmlns:inkscape="http://www.inkscape.org/namespaces/inkscape"
   version="1.1"
   id="Capa_1"
   x="0px"
   y="0px"
   width="64px"
   height="64px"
   viewBox="0 0 64 64"
   enable-background="new 0 0 64 64"
   xml:space="preserve"
   inkscape:version="0.48.2 r9819"
   sodipodi:docname="Flaticon_13239.svg"><metadata
   id="metadata13"><rdf:RDF><cc:Work
       rdf:about=""><dc:format>image/svg+xml</dc:format><dc:type
         rdf:resource="http://purl.org/dc/dcmitype/StillImage" /></cc:Work></rdf:RDF></metadata><defs
   id="defs11" /><sodipodi:namedview
   pagecolor="#ffffff"
   bordercolor="#666666"
   borderopacity="1"
   objecttolerance="10"
   gridtolerance="10"
   guidetolerance="10"
   inkscape:pageopacity="0"
   inkscape:pageshadow="2"
   inkscape:window-width="640"
   inkscape:window-height="480"
   id="namedview9"
   showgrid="false"
   inkscape:zoom="3.6875"
   inkscape:cx="32"
   inkscape:cy="32"
   inkscape:window-x="0"
   inkscape:window-y="0"
   inkscape:window-maximized="0"
   inkscape:current-layer="Capa_1" />
<g
   id="g3">
	<path
   d="M52.125,37.62c-0.011-0.026-0.025-0.048-0.039-0.073c-0.036-0.064-0.077-0.125-0.123-0.182   c-0.018-0.022-0.034-0.044-0.053-0.064c-0.034-0.036-0.068-0.07-0.105-0.104c-0.062-0.055-0.431-0.3-0.819-0.559   c-1.958-1.307-7.465-4.978-9.424-6.284c-0.388-0.258-0.703-0.845-0.703-1.312V10.174c0-0.401-0.19-0.777-0.512-1.017   c-0.322-0.239-0.739-0.311-1.122-0.193L21.068,14.49c-0.446,0.136-1.154,0.097-1.583-0.086l-1.094-0.467   c-0.428-0.184-0.414-0.442,0.031-0.578l15.213-4.646c0.668-0.204,1.045-0.911,0.841-1.58c-0.204-0.669-0.912-1.047-1.58-0.841   L13.56,12.197c-0.053,0.021-0.078,0.033-0.104,0.044c-0.065,0.026-0.127,0.057-0.186,0.092c-0.012,0.007-0.026,0.011-0.039,0.019   c-0.015,0.01-0.026,0.025-0.041,0.035c-0.056,0.04-0.107,0.085-0.155,0.133c-0.02,0.021-0.041,0.039-0.06,0.062   c-0.058,0.066-0.109,0.139-0.152,0.216c-0.054,0.097-0.087,0.186-0.112,0.276c-0.007,0.026-0.01,0.052-0.016,0.078   c-0.014,0.069-0.023,0.138-0.026,0.209c-0.001,0.017-0.006,0.031-0.006,0.048v22.677c0,0.466-0.036,0.86-0.081,0.88l-0.081,0.036   c-0.109,0.058-0.18,0.101-0.246,0.15c-0.025,0.018-0.046,0.037-0.069,0.058c-0.056,0.049-0.107,0.103-0.154,0.161   c-0.015,0.019-0.032,0.035-0.046,0.056c-0.057,0.079-0.105,0.164-0.142,0.257c-0.006,0.015-0.008,0.03-0.014,0.045   c-0.029,0.077-0.049,0.158-0.062,0.241c-0.002,0.015-0.009,0.027-0.01,0.042c-0.002,0.018,0.002,0.036,0.001,0.054   c-0.003,0.031-0.009,0.062-0.009,0.094v7.312c0,0.393,0.182,0.762,0.493,1.002l14.766,11.391c0.226,0.175,0.499,0.264,0.773,0.264   c0.212,0,0.424-0.053,0.616-0.16l23.203-12.938c0.401-0.224,0.649-0.646,0.649-1.105v-5.766c0-0.09-0.01-0.177-0.027-0.261   C52.198,37.791,52.166,37.704,52.125,37.62z M21.453,17.861c0-0.466,0.361-0.953,0.807-1.089l15.261-4.645   c0.446-0.136,0.807,0.132,0.807,0.598v14.63c0,0.467-0.314,0.635-0.702,0.376l-1.127-0.752c-0.361-0.24-0.819-0.278-1.216-0.104   L22.224,32.68c-0.426,0.189-0.771-0.034-0.771-0.501V17.861z M34.904,29.815c0.425-0.189,1.085-0.134,1.473,0.125l11.43,7.62   c0.388,0.259,0.368,0.644-0.045,0.86l-18.404,9.662c-0.412,0.216-1.047,0.163-1.418-0.121L16.151,38.96   c-0.371-0.283-0.326-0.665,0.1-0.854L34.904,29.815z M15.195,16.168c0-0.466,0.348-0.695,0.776-0.512l2.174,0.929   c0.429,0.183,0.776,0.708,0.776,1.175v2.158c-1.57-0.068-2.894-0.916-3.727-1.61V16.168z M15.195,19.388   c0.931,0.671,2.22,1.323,3.727,1.372v7.633c-1.57-0.066-2.894-0.915-3.727-1.609V19.388z M15.195,27.863   c0.931,0.671,2.22,1.323,3.727,1.372v3.992c0,0.466-0.35,0.985-0.782,1.16l-2.163,0.876c-0.432,0.175-0.782-0.061-0.782-0.527   V27.863z M49.719,42.337c0,0.467-0.33,1.027-0.737,1.255L28.631,54.938c-0.407,0.228-1.036,0.18-1.405-0.104L14.95,45.363   c-0.369-0.284-0.668-0.893-0.668-1.358v-2.444c0-0.466,0.3-0.614,0.671-0.332l12.764,9.748c0.225,0.171,0.496,0.26,0.768,0.26   c0.201,0,0.403-0.048,0.588-0.146l19.899-10.447c0.413-0.217,0.747-0.015,0.747,0.452V42.337z"
   id="path5" />
	<path
   d="M39.863,40.3c0.072,0.049,0.155,0.073,0.239,0.073c0.072,0,0.145-0.018,0.209-0.055l4.505-2.575   c0.126-0.072,0.207-0.204,0.212-0.349c0.006-0.146-0.063-0.283-0.183-0.365l-9.011-6.192c-0.118-0.08-0.268-0.097-0.399-0.042   l-5.157,2.123c-0.143,0.059-0.243,0.191-0.259,0.346c-0.017,0.154,0.053,0.304,0.181,0.392L39.863,40.3z M35.545,31.662   l8.269,5.682l-3.692,2.11l-8.803-6.052L35.545,31.662z"
   id="path7" />
</g>
</svg>