<?xml version="1.0" encoding="UTF-8" standalone="no"?>
<!-- Created with Inkscape (http://www.inkscape.org/) -->

<svg
   xmlns:dc="http://purl.org/dc/elements/1.1/"
   xmlns:cc="http://creativecommons.org/ns#"
   xmlns:rdf="http://www.w3.org/1999/02/22-rdf-syntax-ns#"
   xmlns:svg="http://www.w3.org/2000/svg"
   xmlns="http://www.w3.org/2000/svg"
   xmlns:sodipodi="http://sodipodi.sourceforge.net/DTD/sodipodi-0.dtd"
   xmlns:inkscape="http://www.inkscape.org/namespaces/inkscape"
   width="140"
   height="140"
   id="svg8370"
   version="1.1"
   inkscape:version="0.48.2 r9819"
   sodipodi:docname="Nouveau document 63">
  <defs
     id="defs8372" />
  <sodipodi:namedview
     id="base"
     pagecolor="#ffffff"
     bordercolor="#666666"
     borderopacity="1.0"
     inkscape:pageopacity="0.0"
     inkscape:pageshadow="2"
     inkscape:zoom="0.7"
     inkscape:cx="-194.41273"
     inkscape:cy="405.31531"
     inkscape:document-units="px"
     inkscape:current-layer="layer1"
     showgrid="false"
     fit-margin-top="0"
     fit-margin-left="0"
     fit-margin-right="0"
     fit-margin-bottom="0"
     inkscape:window-width="1920"
     inkscape:window-height="1018"
     inkscape:window-x="1072"
     inkscape:window-y="586"
     inkscape:window-maximized="1" />
  <metadata
     id="metadata8375">
    <rdf:RDF>
      <cc:Work
         rdf:about="">
        <dc:format>image/svg+xml</dc:format>
        <dc:type
           rdf:resource="http://purl.org/dc/dcmitype/StillImage" />
        <dc:title></dc:title>
      </cc:Work>
    </rdf:RDF>
  </metadata>
  <g
     inkscape:label="Calque 1"
     inkscape:groupmode="layer"
     id="layer1"
     transform="translate(-347.64147,-592.52496)">
    <g
       id="g4669-2-1-1-8"
       transform="matrix(0,6.4599666,-6.4599666,0,484.14425,593.62598)">
      <path
         id="path4631-5-4-8-9"
         d="m 0.199,10.79 9.646,9.646 c 0.13,0.133 0.302,0.197 0.471,0.197 0.173,0 0.344,-0.064 0.473,-0.197 l 0.013,-0.011 C 10.929,20.305 11,20.132 11,19.952 v -4.68 C 11,15.09 10.93,14.925 10.802,14.797 L 6.323,10.32 10.802,5.837 C 10.929,5.714 11,5.543 11,5.364 V 0.682 C 11,0.506 10.93,0.337 10.802,0.208 L 10.789,0.196 C 10.667,0.071 10.497,0 10.316,0 10.143,0 9.97,0.071 9.845,0.196 L 0.199,9.845 c -0.265,0.259 -0.265,0.687 0,0.945 z"
         inkscape:connector-curvature="0" />
      <g
         id="g4633-0-3-2-7" />
      <g
         id="g4635-9-9-1-2" />
      <g
         id="g4637-4-8-1-2" />
      <g
         id="g4639-7-8-9-8" />
      <g
         id="g4641-83-0-7-2" />
      <g
         id="g4643-5-8-6-8" />
      <g
         id="g4645-1-7-2-9" />
      <g
         id="g4647-20-7-9-0" />
      <g
         id="g4649-1-8-5-7" />
      <g
         id="g4651-64-3-2-8" />
      <g
         id="g4653-06-8-0-1" />
      <g
         id="g4655-1-3-0-5" />
      <g
         id="g4657-89-7-3-8" />
      <g
         id="g4659-8-1-9-6" />
      <g
         id="g4661-4-0-1-1" />
    </g>
    <path
       sodipodi:type="arc"
       style="fill:#ffffff;fill-opacity:1;stroke:none"
       id="path6967-2"
       sodipodi:cx="498.46609"
       sodipodi:cy="919.47028"
       sodipodi:rx="25.058096"
       sodipodi:ry="23.909048"
       d="m 523.52419,919.47028 a 25.058096,23.909048 0 1 1 -0.001,-0.21639"
       transform="translate(-70.327404,-240.58011)"
       sodipodi:start="0"
       sodipodi:end="6.2741348"
       sodipodi:open="true" />
    <path
       id="path4746-4-8-4"
       d="m 380.09606,713.71971 22.15607,-22.15134 c -5.50804,-11.23052 -3.62596,-25.17693 5.71771,-34.5063 11.74988,-11.75466 30.78981,-11.75466 42.53493,0 11.74511,11.74034 11.74511,30.78504 0,42.52538 -9.33416,9.34845 -23.27582,11.22578 -34.50634,5.71771 l -22.15608,22.15611 c -2.91126,2.9017 -8.33355,2.19177 -12.12629,-1.61123 -3.80226,-3.78796 -4.52652,-9.22929 -1.62,-12.13103 z m 36.75526,-23.01853 c 6.83744,6.83746 17.925,6.83268 24.75289,-0.004 6.84697,-6.82789 6.84697,-17.91548 0,-24.74811 -6.82789,-6.83744 -17.91545,-6.83744 -24.75289,0 -6.82789,6.82789 -6.82789,17.92022 0,24.75285 z"
       inkscape:connector-curvature="0"
       style="stroke:#ffffff;stroke-width:3.70370364;stroke-opacity:1" />
    <path
       style="fill:none;stroke:#000000;stroke-width:10;stroke-linecap:round;stroke-linejoin:round;stroke-miterlimit:4;stroke-opacity:1;stroke-dasharray:none"
       d="m 419.36201,678.74548 20,0"
       id="path6876-6-2"
       inkscape:connector-curvature="0" />
  </g>
</svg>
