<?xml version="1.0" encoding="UTF-8" standalone="no"?>
<!-- Generator: Adobe Illustrator 17.0.0, SVG Export Plug-In . SVG Version: 6.00 Build 0)  -->

<svg
   xmlns:dc="http://purl.org/dc/elements/1.1/"
   xmlns:cc="http://creativecommons.org/ns#"
   xmlns:rdf="http://www.w3.org/1999/02/22-rdf-syntax-ns#"
   xmlns:svg="http://www.w3.org/2000/svg"
   xmlns="http://www.w3.org/2000/svg"
   xmlns:sodipodi="http://sodipodi.sourceforge.net/DTD/sodipodi-0.dtd"
   xmlns:inkscape="http://www.inkscape.org/namespaces/inkscape"
   version="1.1"
   id="Capa_1"
   x="0px"
   y="0px"
   width="26.102px"
   height="32.01px"
   viewBox="0 0 26.102 32.01"
   enable-background="new 0 0 26.102 32.01"
   xml:space="preserve"
   inkscape:version="0.48.2 r9819"
   sodipodi:docname="Flaticon_13467.svg"><metadata
   id="metadata9"><rdf:RDF><cc:Work
       rdf:about=""><dc:format>image/svg+xml</dc:format><dc:type
         rdf:resource="http://purl.org/dc/dcmitype/StillImage" /></cc:Work></rdf:RDF></metadata><defs
   id="defs7" /><sodipodi:namedview
   pagecolor="#ffffff"
   bordercolor="#666666"
   borderopacity="1"
   objecttolerance="10"
   gridtolerance="10"
   guidetolerance="10"
   inkscape:pageopacity="0"
   inkscape:pageshadow="2"
   inkscape:window-width="640"
   inkscape:window-height="480"
   id="namedview5"
   showgrid="false"
   inkscape:zoom="7.3726964"
   inkscape:cx="13.051"
   inkscape:cy="16.004999"
   inkscape:window-x="0"
   inkscape:window-y="0"
   inkscape:window-maximized="0"
   inkscape:current-layer="Capa_1" />
<path
   d="M18.376,9.26H4.095V7.535h14.281V9.26z M9.463,10.84H4.095v1.724h5.368V10.84z M14.35,4.232H4.095v1.725H14.35V4.232z   M15.829,12.564h2.546V10.84h-2.546V12.564z M18.375,4.232h-2.546v1.725h2.546V4.232z M9.463,14.143H4.095v1.725h5.368V14.143z   M18.575,25.086l1.127,1.651h0.03c0.231,0,0.453-0.042,0.668-0.103l-1.056-1.548H18.575z M13.992,18.369l4.583,6.717h-1.443  l-3.849-5.641l-0.888-1.301c-0.07-0.084-0.136-0.171-0.189-0.277l-0.051-0.074l0.018-0.012c-0.044-0.1-0.093-0.197-0.121-0.316  l-1.211-5.127c-0.169-0.715,0.013-1.115,0.422-1.115c0.203,0,0.463,0.098,0.763,0.306l4.333,2.998  c0.099,0.07,0.183,0.144,0.26,0.222l0.012-0.008l0.043,0.062c0.096,0.103,0.168,0.215,0.225,0.328l0.859,1.26l3.095,4.536v2.643  c0,0.822-0.513,1.516-1.121,1.516h-0.388l-4.813-7.053l-0.367,0.25C14.107,18.322,14.05,18.34,13.992,18.369z M15.765,15.33  l-3.812-2.638l1.066,4.511L15.765,15.33z M2.773,25.086c-0.608,0-1.121-0.695-1.121-1.516V3.166c0-0.821,0.513-1.515,1.121-1.515  h16.959c0.608,0,1.121,0.695,1.121,1.515v17.761l1.652,2.421V3.166C22.505,1.42,21.261,0,19.732,0H2.773C1.244,0,0,1.42,0,3.166  V23.57c0,1.746,1.244,3.167,2.773,3.167h15.485l-1.127-1.651H2.773z M4.095,22.474h8.087V20.75H4.095V22.474z M26.081,29.233  c-0.009,0.631-0.31,1.25-0.868,1.631l-1.172,0.799c-0.342,0.235-0.734,0.346-1.122,0.346c-0.227,0-0.448-0.051-0.662-0.125  c-0.343-0.06-0.638-0.222-0.822-0.492c-0.029-0.041-0.044-0.088-0.066-0.133c-0.034-0.041-0.076-0.074-0.107-0.12l-3.004-4.402  h1.443l0.364,0.534l0.525-0.357l-0.191-0.28c1.206-0.344,2.105-1.582,2.105-3.064v-0.223l3.232,4.737  c0.034,0.051,0.056,0.104,0.085,0.156c0.029,0.034,0.063,0.061,0.088,0.098C26.086,28.595,26.135,28.91,26.081,29.233z   M24.374,27.859l-1.078-1.578l-2.824,1.928l1.078,1.578c0.173-0.271,0.409-0.527,0.711-0.732l1.172-0.801  C23.734,28.048,24.058,27.921,24.374,27.859z M10.381,17.445H4.095v1.725h6.286V17.445z"
   id="path3" />
</svg>