<?xml version="1.0" encoding="UTF-8" standalone="no"?>
<!-- Created with Inkscape (http://www.inkscape.org/) -->

<svg
   xmlns:dc="http://purl.org/dc/elements/1.1/"
   xmlns:cc="http://creativecommons.org/ns#"
   xmlns:rdf="http://www.w3.org/1999/02/22-rdf-syntax-ns#"
   xmlns:svg="http://www.w3.org/2000/svg"
   xmlns="http://www.w3.org/2000/svg"
   xmlns:sodipodi="http://sodipodi.sourceforge.net/DTD/sodipodi-0.dtd"
   xmlns:inkscape="http://www.inkscape.org/namespaces/inkscape"
   width="150"
   height="150"
   id="svg7034"
   version="1.1"
   inkscape:version="0.48.2 r9819"
   sodipodi:docname="Nouveau document 29">
  <defs
     id="defs7036" />
  <sodipodi:namedview
     id="base"
     pagecolor="#ffffff"
     bordercolor="#666666"
     borderopacity="1.0"
     inkscape:pageopacity="0.0"
     inkscape:pageshadow="2"
     inkscape:zoom="0.98994949"
     inkscape:cx="38.515264"
     inkscape:cy="69.717044"
     inkscape:document-units="px"
     inkscape:current-layer="layer1"
     showgrid="false"
     fit-margin-top="0"
     fit-margin-left="0"
     fit-margin-right="0"
     fit-margin-bottom="0"
     inkscape:window-width="511"
     inkscape:window-height="453"
     inkscape:window-x="1280"
     inkscape:window-y="794"
     inkscape:window-maximized="0" />
  <metadata
     id="metadata7039">
    <rdf:RDF>
      <cc:Work
         rdf:about="">
        <dc:format>image/svg+xml</dc:format>
        <dc:type
           rdf:resource="http://purl.org/dc/dcmitype/StillImage" />
        <dc:title></dc:title>
      </cc:Work>
    </rdf:RDF>
  </metadata>
  <g
     inkscape:label="Calque 1"
     inkscape:groupmode="layer"
     id="layer1"
     transform="translate(-282.54259,-348.71018)">
    <g
       transform="matrix(3.7037037,0,0,3.7037037,345.86423,363.87222)"
       id="g5609-8-1-4-3">
      <rect
         style="fill:#ffffff;fill-opacity:1;stroke:#000000;stroke-width:4;stroke-linecap:round;stroke-linejoin:round;stroke-miterlimit:4;stroke-opacity:1;stroke-dasharray:none;stroke-dashoffset:0"
         id="rect5593-9-7-5-4"
         width="27"
         height="36.450001"
         x="-10.174"
         y="-2.0469961" />
      <path
         id="path4746-4"
         d="m -7.2627741,22.651042 5.9821439,-5.980856 c -1.4871738,-3.03224 -0.9790132,-6.7977728 1.54377906,-9.3167067 3.17246604,-3.1737524 8.31325014,-3.1737524 11.48442914,0 3.17118,3.1698917 3.17118,8.3119637 0,11.4818557 -2.5202191,2.524081 -6.2844669,3.030954 -9.3167061,1.543779 l -5.9821438,5.982145 C -4.3373128,27.144725 -5.8013298,26.95304 -6.82537,25.926237 -7.851983,24.903482 -8.0475286,23.434322 -7.2627741,22.650852 z m 9.9239265,-6.214996 c 1.8461024,1.846102 4.8397473,1.844816 6.6832771,-0.0013 1.8486755,-1.843528 1.8486755,-4.837175 0,-6.68199 -1.8435298,-1.8461035 -4.8371747,-1.8461035 -6.6832771,0 -1.84352962,1.84353 -1.84352962,4.838462 0,6.683276 z"
         inkscape:connector-curvature="0" />
      <path
         style="fill:none;stroke:#000000;stroke-width:2.70000005;stroke-linecap:round;stroke-linejoin:round;stroke-miterlimit:4;stroke-opacity:1;stroke-dasharray:none"
         d="m 3.326,13.207999 5.4,0"
         id="path6876"
         inkscape:connector-curvature="0" />
    </g>
  </g>
</svg>
