<?xml version="1.0" encoding="UTF-8" standalone="no"?>
<!-- Created with Inkscape (http://www.inkscape.org/) -->

<svg
   xmlns:dc="http://purl.org/dc/elements/1.1/"
   xmlns:cc="http://creativecommons.org/ns#"
   xmlns:rdf="http://www.w3.org/1999/02/22-rdf-syntax-ns#"
   xmlns:svg="http://www.w3.org/2000/svg"
   xmlns="http://www.w3.org/2000/svg"
   xmlns:sodipodi="http://sodipodi.sourceforge.net/DTD/sodipodi-0.dtd"
   xmlns:inkscape="http://www.inkscape.org/namespaces/inkscape"
   width="190"
   height="190"
   id="svg7097"
   version="1.1"
   inkscape:version="0.48.2 r9819"
   sodipodi:docname="Nouveau document 31">
  <defs
     id="defs7099" />
  <sodipodi:namedview
     id="base"
     pagecolor="#ffffff"
     bordercolor="#666666"
     borderopacity="1.0"
     inkscape:pageopacity="0.0"
     inkscape:pageshadow="2"
     inkscape:zoom="1.4"
     inkscape:cx="-8.895649"
     inkscape:cy="143.32843"
     inkscape:document-units="px"
     inkscape:current-layer="layer1"
     showgrid="false"
     fit-margin-top="0"
     fit-margin-left="0"
     fit-margin-right="0"
     fit-margin-bottom="0"
     inkscape:window-width="1920"
     inkscape:window-height="1018"
     inkscape:window-x="1072"
     inkscape:window-y="586"
     inkscape:window-maximized="1" />
  <metadata
     id="metadata7102">
    <rdf:RDF>
      <cc:Work
         rdf:about="">
        <dc:format>image/svg+xml</dc:format>
        <dc:type
           rdf:resource="http://purl.org/dc/dcmitype/StillImage" />
        <dc:title></dc:title>
      </cc:Work>
    </rdf:RDF>
  </metadata>
  <g
     inkscape:label="Calque 1"
     inkscape:groupmode="layer"
     id="layer1"
     transform="translate(-282.59176,-270.72074)">
    <g
       transform="matrix(3.7037037,0,0,3.7037037,363.13693,305.76133)"
       id="g5609-8-1-3">
      <rect
         style="fill:#ffffff;fill-opacity:1;stroke:#000000;stroke-width:4;stroke-linecap:round;stroke-linejoin:round;stroke-miterlimit:4;stroke-opacity:1;stroke-dasharray:none;stroke-dashoffset:0"
         id="rect5593-9-7-8"
         width="27"
         height="36"
         x="175"
         y="276.36218"
         transform="translate(-184.574,-278.05918)" />
      <path
         style="fill:#ffffff;fill-opacity:1;stroke:#000000;stroke-width:4.00005007;stroke-linecap:round;stroke-linejoin:miter;stroke-miterlimit:4;stroke-opacity:1;stroke-dasharray:none"
         d="m -3.574,6.3030022 15,0"
         id="path5595-7-4-7"
         inkscape:connector-curvature="0" />
      <path
         style="fill:#ffffff;fill-opacity:1;stroke:#000000;stroke-width:4;stroke-linecap:round;stroke-linejoin:miter;stroke-miterlimit:4;stroke-opacity:1;stroke-dasharray:none"
         d="m -3.574,16.303003 15,0"
         id="path5599-2-0-4"
         inkscape:connector-curvature="0" />
      <path
         style="fill:#ffffff;fill-opacity:1;stroke:#000000;stroke-width:4;stroke-linecap:round;stroke-linejoin:miter;stroke-miterlimit:4;stroke-opacity:1;stroke-dasharray:none"
         d="m -3.574,26.303003 15,0"
         id="path5603-2-9-2"
         inkscape:connector-curvature="0" />
      <path
         sodipodi:type="arc"
         style="fill:#ffffff;fill-opacity:1;stroke:none"
         id="path6967"
         sodipodi:cx="498.46609"
         sodipodi:cy="919.47028"
         sodipodi:rx="25.058096"
         sodipodi:ry="23.909048"
         d="m 523.52419,919.47028 c 0,13.2046 -11.21889,23.90904 -25.0581,23.90904 -13.8392,0 -25.05809,-10.70444 -25.05809,-23.90904 0,-13.20461 11.21889,-23.90905 25.05809,-23.90905 13.75073,0 24.93263,10.57302 25.05707,23.69266"
         transform="matrix(0.27,0,0,0.27,-128.18983,-233.08756)"
         sodipodi:start="0"
         sodipodi:end="6.2741348"
         sodipodi:open="true" />
      <path
         id="path4746-4-8"
         d="m -6.5754964,24.573392 5.98214007,-5.98086 c -1.48717007,-3.03224 -0.97901007,-6.79777 1.54378,-9.3167002 3.17246993,-3.17376 8.31324993,-3.17376 11.48443233,0 3.17118,3.1698902 3.17118,8.3119602 0,11.4818502 -2.5202224,2.52408 -6.2844724,3.03096 -9.3167124,1.54378 l -5.98214,5.98215 c -0.78604,0.78346 -2.25006,0.59178 -3.2741,-0.43503 -1.02661,-1.02275 -1.22216,-2.49191 -0.4374,-3.27538 z m 9.92392,-6.215 c 1.84611,1.84611 4.83975,1.84482 6.6832804,-10e-4 1.848682,-1.84353 1.848682,-4.83718 0,-6.68199 -1.8435304,-1.8461102 -4.8371704,-1.8461102 -6.6832804,0 -1.84353,1.84353 -1.84353,4.83846 0,6.68327 z"
         inkscape:connector-curvature="0"
         style="stroke:#ffffff;stroke-opacity:1" />
      <path
         style="fill:none;stroke:#000000;stroke-width:2.70000005;stroke-linecap:round;stroke-linejoin:round;stroke-miterlimit:4;stroke-opacity:1;stroke-dasharray:none"
         d="m 3.6791657,15.130352 5.4,0"
         id="path6876-6"
         inkscape:connector-curvature="0" />
    </g>
    <path
       style="fill:none;stroke:#000000;stroke-width:14.81499958;stroke-linecap:round;stroke-linejoin:round;stroke-miterlimit:4;stroke-opacity:1;stroke-dasharray:none"
       d="m 427.67767,279.47616 20,0 0,20"
       id="path3631-7"
       inkscape:connector-curvature="0" />
    <path
       style="fill:none;stroke:#000000;stroke-width:14.81499958;stroke-linecap:round;stroke-linejoin:round;stroke-miterlimit:4;stroke-opacity:1;stroke-dasharray:none"
       d="m 327.67767,452.80948 -20,0 0,-19.99999"
       id="path3633-7"
       inkscape:connector-curvature="0" />
    <path
       style="fill:none;stroke:#000000;stroke-width:14.81499958;stroke-linecap:round;stroke-linejoin:round;stroke-miterlimit:4;stroke-opacity:1;stroke-dasharray:none"
       d="m 327.67767,279.47616 -20,0 0,20"
       id="path3631-9-9"
       inkscape:connector-curvature="0" />
    <path
       style="fill:none;stroke:#000000;stroke-width:14.81499958;stroke-linecap:round;stroke-linejoin:round;stroke-miterlimit:4;stroke-opacity:1;stroke-dasharray:none"
       d="m 427.67767,452.80948 20,0 0,-19.99999"
       id="path3633-5-3"
       inkscape:connector-curvature="0" />
  </g>
</svg>
