<?xml version="1.0" encoding="UTF-8" standalone="no"?>
<!-- Generator: Adobe Illustrator 16.0.0, SVG Export Plug-In . SVG Version: 6.00 Build 0)  -->

<svg
   xmlns:dc="http://purl.org/dc/elements/1.1/"
   xmlns:cc="http://creativecommons.org/ns#"
   xmlns:rdf="http://www.w3.org/1999/02/22-rdf-syntax-ns#"
   xmlns:svg="http://www.w3.org/2000/svg"
   xmlns="http://www.w3.org/2000/svg"
   xmlns:sodipodi="http://sodipodi.sourceforge.net/DTD/sodipodi-0.dtd"
   xmlns:inkscape="http://www.inkscape.org/namespaces/inkscape"
   version="1.1"
   x="0px"
   y="0px"
   width="28.36px"
   height="27.443px"
   viewBox="0 0 28.36 27.443"
   style="enable-background:new 0 0 28.36 27.443;"
   xml:space="preserve"
   id="svg2"
   inkscape:version="0.48.2 r9819"
   sodipodi:docname="Flaticon_871.svg"><metadata
   id="metadata18"><rdf:RDF><cc:Work
       rdf:about=""><dc:format>image/svg+xml</dc:format><dc:type
         rdf:resource="http://purl.org/dc/dcmitype/StillImage" /></cc:Work></rdf:RDF></metadata><defs
   id="defs16" /><sodipodi:namedview
   pagecolor="#ffffff"
   bordercolor="#666666"
   borderopacity="1"
   objecttolerance="10"
   gridtolerance="10"
   guidetolerance="10"
   inkscape:pageopacity="0"
   inkscape:pageshadow="2"
   inkscape:window-width="640"
   inkscape:window-height="480"
   id="namedview14"
   showgrid="false"
   inkscape:zoom="8.5996426"
   inkscape:cx="14.18"
   inkscape:cy="13.7215"
   inkscape:window-x="0"
   inkscape:window-y="0"
   inkscape:window-maximized="0"
   inkscape:current-layer="svg2" />
<g
   id="c115_arrows">
	<path
   style="fill:#000000;"
   d="M28.36,19.136c0-0.868-0.665-1.57-1.491-1.57c-0.819,0.002-1.492,0.702-1.492,1.57v3.25   l-6.018-6.021c-0.582-0.583-1.524-0.583-2.106,0c-0.582,0.582-0.582,1.527,0,2.109l5.989,5.987h-3.235   c-0.881,0.002-1.591,0.669-1.591,1.491c0,0.824,0.71,1.49,1.591,1.49h6.761c0.881,0,1.59-0.665,1.593-1.49   c-0.003-0.022-0.006-0.039-0.009-0.061c0.003-0.028,0.009-0.058,0.009-0.087V19.136z"
   id="path5" />
	<path
   style="fill:#000000;"
   d="M9,16.365l-6.015,6.021v-3.25c0-0.868-0.672-1.568-1.493-1.57c-0.824,0-1.49,0.702-1.49,1.57   L0,25.806c0,0.029,0.008,0.059,0.01,0.087c-0.002,0.021-0.006,0.038-0.008,0.061c0.002,0.825,0.712,1.49,1.592,1.49h6.762   c0.879,0,1.59-0.666,1.59-1.49c0-0.822-0.711-1.489-1.59-1.491H5.121l5.989-5.987c0.58-0.582,0.58-1.527,0-2.109   C10.527,15.782,9.584,15.782,9,16.365z"
   id="path7" />
	<path
   style="fill:#000000;"
   d="M19.359,11.076l6.018-6.017v3.25c0,0.865,0.673,1.565,1.492,1.568c0.826,0,1.491-0.703,1.491-1.568   V1.638c0-0.029-0.006-0.059-0.009-0.085c0.003-0.021,0.006-0.041,0.009-0.062C28.357,0.665,27.648,0,26.768,0h-6.761   c-0.881,0-1.591,0.665-1.591,1.491c0,0.821,0.71,1.49,1.591,1.492h3.235l-5.989,5.987c-0.582,0.581-0.582,1.524,0,2.105   C17.835,11.661,18.777,11.661,19.359,11.076z"
   id="path9" />
	<path
   style="fill:#000000;"
   d="M5.121,2.983h3.234c0.879-0.002,1.59-0.671,1.59-1.492C9.945,0.665,9.234,0,8.355,0H1.594   c-0.88,0-1.59,0.665-1.592,1.491C0.004,1.512,0.008,1.532,0.01,1.553C0.008,1.579,0,1.608,0,1.638L0.002,8.31   c0,0.865,0.666,1.568,1.49,1.568C2.313,9.875,2.985,9.175,2.985,8.31V5.06L9,11.076c0.584,0.585,1.527,0.585,2.11,0   c0.58-0.581,0.58-1.524,0-2.105L5.121,2.983z"
   id="path11" />
</g>
<g
   id="Capa_1">
</g>
</svg>