<?xml version="1.0" encoding="UTF-8" standalone="no"?>
<!-- Generator: Adobe Illustrator 16.0.4, SVG Export Plug-In . SVG Version: 6.00 Build 0)  -->

<svg
   xmlns:dc="http://purl.org/dc/elements/1.1/"
   xmlns:cc="http://creativecommons.org/ns#"
   xmlns:rdf="http://www.w3.org/1999/02/22-rdf-syntax-ns#"
   xmlns:svg="http://www.w3.org/2000/svg"
   xmlns="http://www.w3.org/2000/svg"
   xmlns:sodipodi="http://sodipodi.sourceforge.net/DTD/sodipodi-0.dtd"
   xmlns:inkscape="http://www.inkscape.org/namespaces/inkscape"
   version="1.1"
   id="Capa_1"
   x="0px"
   y="0px"
   width="16px"
   height="16px"
   viewBox="0 0 16 16"
   enable-background="new 0 0 16 16"
   xml:space="preserve"
   inkscape:version="0.48.2 r9819"
   sodipodi:docname="Flaticon_8759.svg"><metadata
   id="metadata15"><rdf:RDF><cc:Work
       rdf:about=""><dc:format>image/svg+xml</dc:format><dc:type
         rdf:resource="http://purl.org/dc/dcmitype/StillImage" /></cc:Work></rdf:RDF></metadata><defs
   id="defs13" /><sodipodi:namedview
   pagecolor="#ffffff"
   bordercolor="#666666"
   borderopacity="1"
   objecttolerance="10"
   gridtolerance="10"
   guidetolerance="10"
   inkscape:pageopacity="0"
   inkscape:pageshadow="2"
   inkscape:window-width="640"
   inkscape:window-height="480"
   id="namedview11"
   showgrid="false"
   inkscape:zoom="14.75"
   inkscape:cx="8"
   inkscape:cy="8"
   inkscape:window-x="0"
   inkscape:window-y="0"
   inkscape:window-maximized="0"
   inkscape:current-layer="Capa_1" />
<g
   id="g3">
	<path
   d="M2.5,4H9c0,0.552,0.448,1,1,1h1c0.552,0,1-0.448,1-1h1.5C13.775,4,14,3.776,14,3.5S13.775,3,13.5,3H12c0-0.552-0.448-1-1-1   h-1C9.448,2,9,2.448,9,3H2.5C2.224,3,2,3.224,2,3.5S2.224,4,2.5,4z M10,3h1v1h-1V3z"
   id="path5" />
	<path
   d="M13.5,7H7c0-0.552-0.448-1-1-1H5C4.448,6,4,6.448,4,7H2.5C2.224,7,2,7.224,2,7.5S2.224,8,2.5,8H4c0,0.552,0.448,1,1,1h1   c0.552,0,1-0.448,1-1h6.5C13.775,8,14,7.776,14,7.5S13.775,7,13.5,7z M6,8H5V7h1V8z"
   id="path7" />
	<path
   d="M13.5,11H10c0-0.552-0.448-1-1-1H8c-0.552,0-1,0.448-1,1H2.5C2.224,11,2,11.225,2,11.5S2.224,12,2.5,12H7   c0,0.552,0.448,1,1,1h1c0.552,0,1-0.448,1-1h3.5c0.275,0,0.5-0.225,0.5-0.5S13.775,11,13.5,11z M9,12H8v-1h1V12z"
   id="path9" />
</g>
</svg>