<?xml version="1.0" encoding="UTF-8" standalone="no"?>
<svg
   xmlns:dc="http://purl.org/dc/elements/1.1/"
   xmlns:cc="http://creativecommons.org/ns#"
   xmlns:rdf="http://www.w3.org/1999/02/22-rdf-syntax-ns#"
   xmlns:svg="http://www.w3.org/2000/svg"
   xmlns="http://www.w3.org/2000/svg"
   xmlns:sodipodi="http://sodipodi.sourceforge.net/DTD/sodipodi-0.dtd"
   xmlns:inkscape="http://www.inkscape.org/namespaces/inkscape"
   width="16.999"
   height="17"
   viewBox="0 0 16.999 17"
   enable-background="new 0 0 16.999 17"
   id="svg2"
   version="1.1"
   inkscape:version="0.48.2 r9819"
   sodipodi:docname="Flaticon_15642.svg">
  <metadata
     id="metadata10">
    <rdf:RDF>
      <cc:Work
         rdf:about="">
        <dc:format>image/svg+xml</dc:format>
        <dc:type
           rdf:resource="http://purl.org/dc/dcmitype/StillImage" />
      </cc:Work>
    </rdf:RDF>
  </metadata>
  <defs
     id="defs8" />
  <sodipodi:namedview
     pagecolor="#ffffff"
     bordercolor="#666666"
     borderopacity="1"
     objecttolerance="10"
     gridtolerance="10"
     guidetolerance="10"
     inkscape:pageopacity="0"
     inkscape:pageshadow="2"
     inkscape:window-width="640"
     inkscape:window-height="480"
     id="namedview6"
     showgrid="false"
     inkscape:zoom="13.882353"
     inkscape:cx="8.4995003"
     inkscape:cy="8.5"
     inkscape:window-x="0"
     inkscape:window-y="0"
     inkscape:window-maximized="0"
     inkscape:current-layer="svg2" />
  <path
     d="m16.625,13.742l-4.65-4.649c1.156-2.357 .761-5.284-1.2-7.242-2.466-2.467-6.462-2.467-8.927,0-2.465,2.464-2.465,6.461 0,8.925 1.959,1.962 4.885,2.356 7.242,1.2l4.65,4.65c.611,.609 1.749,.46 2.545-.338 .798-.795 .95-1.937 .34-2.546zm-7.714-4.831c-1.435,1.435-3.762,1.434-5.195-.001-1.437-1.433-1.437-3.76 0-5.194 1.433-1.435 3.76-1.435 5.195,0 1.433,1.433 1.433,3.761 0,5.195z"
     id="path4" />
</svg>
