<?xml version="1.0" encoding="UTF-8" standalone="no"?>
<!-- Generator: Adobe Illustrator 17.0.0, SVG Export Plug-In . SVG Version: 6.00 Build 0)  -->

<svg
   xmlns:dc="http://purl.org/dc/elements/1.1/"
   xmlns:cc="http://creativecommons.org/ns#"
   xmlns:rdf="http://www.w3.org/1999/02/22-rdf-syntax-ns#"
   xmlns:svg="http://www.w3.org/2000/svg"
   xmlns="http://www.w3.org/2000/svg"
   xmlns:sodipodi="http://sodipodi.sourceforge.net/DTD/sodipodi-0.dtd"
   xmlns:inkscape="http://www.inkscape.org/namespaces/inkscape"
   version="1.1"
   id="Capa_1"
   x="0px"
   y="0px"
   width="64px"
   height="64px"
   viewBox="0 0 64 64"
   enable-background="new 0 0 64 64"
   xml:space="preserve"
   inkscape:version="0.48.2 r9819"
   sodipodi:docname="Flaticon_16677.svg"><metadata
   id="metadata11"><rdf:RDF><cc:Work
       rdf:about=""><dc:format>image/svg+xml</dc:format><dc:type
         rdf:resource="http://purl.org/dc/dcmitype/StillImage" /></cc:Work></rdf:RDF></metadata><defs
   id="defs9" /><sodipodi:namedview
   pagecolor="#ffffff"
   bordercolor="#666666"
   borderopacity="1"
   objecttolerance="10"
   gridtolerance="10"
   guidetolerance="10"
   inkscape:pageopacity="0"
   inkscape:pageshadow="2"
   inkscape:window-width="640"
   inkscape:window-height="480"
   id="namedview7"
   showgrid="false"
   inkscape:zoom="3.6875"
   inkscape:cx="32"
   inkscape:cy="32"
   inkscape:window-x="0"
   inkscape:window-y="0"
   inkscape:window-maximized="0"
   inkscape:current-layer="Capa_1" />
<path
   fill-rule="evenodd"
   clip-rule="evenodd"
   d="M45.25,10.733v12.5c0,1.104-0.896,2-2,2h-23.5c-1.105,0-2-0.896-2-2v-12.5  c0-1.104-0.896-2-2-2h-4.5c-1.105,0-2,0.896-2,2v34.5c0,1.104,0.59,2.674,1.317,3.505l4.366,4.989  c0.727,0.832,2.212,1.505,3.317,1.505h34.5c1.104,0,2-0.896,2-2v-42.5c0-1.104-0.896-2-2-2h-5.5  C46.145,8.733,45.25,9.628,45.25,10.733z"
   id="path3" />
<path
   fill-rule="evenodd"
   clip-rule="evenodd"
   d="M35.333,21H39c1.104,0,2-0.896,2-2v-7.769c0-1.104-0.896-2-2-2h-3.667  c-1.104,0-2,0.896-2,2V19C33.333,20.105,34.229,21,35.333,21z"
   id="path5" />
</svg>