<?xml version="1.0" encoding="UTF-8" standalone="no"?>
<!-- Generator: Adobe Illustrator 15.0.0, SVG Export Plug-In . SVG Version: 6.00 Build 0)  -->

<svg
   xmlns:dc="http://purl.org/dc/elements/1.1/"
   xmlns:cc="http://creativecommons.org/ns#"
   xmlns:rdf="http://www.w3.org/1999/02/22-rdf-syntax-ns#"
   xmlns:svg="http://www.w3.org/2000/svg"
   xmlns="http://www.w3.org/2000/svg"
   xmlns:sodipodi="http://sodipodi.sourceforge.net/DTD/sodipodi-0.dtd"
   xmlns:inkscape="http://www.inkscape.org/namespaces/inkscape"
   version="1.1"
   id="Layer_1"
   x="0px"
   y="0px"
   width="26px"
   height="26px"
   viewBox="0 0 26 26"
   enable-background="new 0 0 26 26"
   xml:space="preserve"
   inkscape:version="0.48.2 r9819"
   sodipodi:docname="Flaticon_1884.svg"><metadata
   id="metadata13"><rdf:RDF><cc:Work
       rdf:about=""><dc:format>image/svg+xml</dc:format><dc:type
         rdf:resource="http://purl.org/dc/dcmitype/StillImage" /></cc:Work></rdf:RDF></metadata><defs
   id="defs11" /><sodipodi:namedview
   pagecolor="#ffffff"
   bordercolor="#666666"
   borderopacity="1"
   objecttolerance="10"
   gridtolerance="10"
   guidetolerance="10"
   inkscape:pageopacity="0"
   inkscape:pageshadow="2"
   inkscape:window-width="640"
   inkscape:window-height="480"
   id="namedview9"
   showgrid="false"
   inkscape:zoom="9.0769231"
   inkscape:cx="13"
   inkscape:cy="13"
   inkscape:window-x="0"
   inkscape:window-y="0"
   inkscape:window-maximized="0"
   inkscape:current-layer="Layer_1" />
<g
   id="g3">
	<path
   d="M10.968,16.775c-0.04,0.001-0.08,0.004-0.118,0.004c-0.995,0-1.355,0.646-1.589,0.312c-0.234-0.334,0.483-1.079,1.38-1.024   c-0.857-2.146-0.783-4.078-0.368-6.417c-3.05-0.481-5.41-3.427-5.41,0.019c0,3.738,2.775,10.174,6.199,10.174   c0.515,0,1.015-0.148,1.492-0.409C11.999,19.077,11.332,17.458,10.968,16.775z M7.628,12.65c-0.943-0.364-1.574-1.007-1.409-1.438   c0.166-0.43,1.065-0.483,2.009-0.12c0.943,0.363,1.574,1.008,1.407,1.437C9.471,12.959,8.571,13.013,7.628,12.65z"
   id="path5" />
	<path
   d="M17.538,9.59c-3.229-1.138-4.588-5.629-5.83-2.105c-1.242,3.525-0.765,10.519,2.464,11.655   c3.23,1.138,7.985-4.009,9.229-7.533C24.642,8.081,20.768,10.728,17.538,9.59z M12.465,9.419c0.324-0.377,1.257-0.111,2.085,0.596   c0.829,0.708,1.239,1.587,0.917,1.965c-0.323,0.378-1.256,0.11-2.084-0.597C12.555,10.676,12.144,9.796,12.465,9.419z    M16.786,17.145c-0.137,0.393-1.012,0.443-1.95,0.111c-0.938-0.331-1.588-0.917-1.448-1.309c0.137-0.393,0.744,0.315,1.682,0.646   C16.008,16.924,16.925,16.753,16.786,17.145z M19.663,13.602c-1.089,0.039-1.986-0.331-2.004-0.828   c-0.019-0.496,0.853-0.93,1.938-0.969c1.089-0.04,1.986,0.331,2.004,0.827C21.62,13.128,20.751,13.563,19.663,13.602z"
   id="path7" />
</g>
</svg>