<?xml version="1.0" encoding="UTF-8" standalone="no"?>
<!-- Generator: Adobe Illustrator 16.0.0, SVG Export Plug-In . SVG Version: 6.00 Build 0)  -->

<svg
   xmlns:dc="http://purl.org/dc/elements/1.1/"
   xmlns:cc="http://creativecommons.org/ns#"
   xmlns:rdf="http://www.w3.org/1999/02/22-rdf-syntax-ns#"
   xmlns:svg="http://www.w3.org/2000/svg"
   xmlns="http://www.w3.org/2000/svg"
   xmlns:sodipodi="http://sodipodi.sourceforge.net/DTD/sodipodi-0.dtd"
   xmlns:inkscape="http://www.inkscape.org/namespaces/inkscape"
   version="1.1"
   id="Capa_1"
   x="0px"
   y="0px"
   width="11px"
   height="20.634px"
   viewBox="0 0 11 20.634"
   style="enable-background:new 0 0 11 20.634;"
   xml:space="preserve"
   inkscape:version="0.48.2 r9819"
   sodipodi:docname="precedent.svg"><metadata
   id="metadata39"><rdf:RDF><cc:Work
       rdf:about=""><dc:format>image/svg+xml</dc:format><dc:type
         rdf:resource="http://purl.org/dc/dcmitype/StillImage" /><dc:title></dc:title></cc:Work></rdf:RDF></metadata><defs
   id="defs37" /><sodipodi:namedview
   pagecolor="#ffffff"
   bordercolor="#666666"
   borderopacity="1"
   objecttolerance="10"
   gridtolerance="10"
   guidetolerance="10"
   inkscape:pageopacity="0"
   inkscape:pageshadow="2"
   inkscape:window-width="640"
   inkscape:window-height="480"
   id="namedview35"
   showgrid="false"
   inkscape:zoom="11.437433"
   inkscape:cx="5.5"
   inkscape:cy="10.317"
   inkscape:window-x="0"
   inkscape:window-y="0"
   inkscape:window-maximized="0"
   inkscape:current-layer="Capa_1" />
<path
   d="m 10.80125,10.79 -9.646,9.646 c -0.13,0.133 -0.302,0.197 -0.471,0.197 -0.173,0 -0.344,-0.064 -0.473,-0.197 l -0.013,-0.011 c -0.127,-0.12 -0.198,-0.293 -0.198,-0.473 v -4.68 c 0,-0.182 0.07,-0.347 0.198,-0.475 l 4.479,-4.477 -4.479,-4.483 C 0.07125,5.714 2.5e-4,5.543 2.5e-4,5.364 V 0.682 c 0,-0.176 0.07,-0.345 0.198,-0.474 l 0.013,-0.012 C 0.33325,0.071 0.50325,0 0.68425,0 c 0.173,0 0.346,0.071 0.471,0.196 l 9.646,9.649 c 0.265,0.259 0.265,0.687 0,0.945 z"
   id="path3"
   inkscape:connector-curvature="0" />
<g
   id="g5">
</g>
<g
   id="g7">
</g>
<g
   id="g9">
</g>
<g
   id="g11">
</g>
<g
   id="g13">
</g>
<g
   id="g15">
</g>
<g
   id="g17">
</g>
<g
   id="g19">
</g>
<g
   id="g21">
</g>
<g
   id="g23">
</g>
<g
   id="g25">
</g>
<g
   id="g27">
</g>
<g
   id="g29">
</g>
<g
   id="g31">
</g>
<g
   id="g33">
</g>
</svg>