<?xml version="1.0" encoding="UTF-8" standalone="no"?>
<!-- Generator: Adobe Illustrator 16.0.0, SVG Export Plug-In . SVG Version: 6.00 Build 0)  -->

<svg
   xmlns:dc="http://purl.org/dc/elements/1.1/"
   xmlns:cc="http://creativecommons.org/ns#"
   xmlns:rdf="http://www.w3.org/1999/02/22-rdf-syntax-ns#"
   xmlns:svg="http://www.w3.org/2000/svg"
   xmlns="http://www.w3.org/2000/svg"
   xmlns:sodipodi="http://sodipodi.sourceforge.net/DTD/sodipodi-0.dtd"
   xmlns:inkscape="http://www.inkscape.org/namespaces/inkscape"
   version="1.1"
   id="Capa_1"
   x="0px"
   y="0px"
   width="29.119px"
   height="29.522px"
   viewBox="0 0 29.119 29.522"
   style="enable-background:new 0 0 29.119 29.522;"
   xml:space="preserve"
   inkscape:version="0.48.2 r9819"
   sodipodi:docname="zoom-plus.svg"><metadata
   id="metadata43"><rdf:RDF><cc:Work
       rdf:about=""><dc:format>image/svg+xml</dc:format><dc:type
         rdf:resource="http://purl.org/dc/dcmitype/StillImage" /><dc:title></dc:title></cc:Work></rdf:RDF></metadata><defs
   id="defs41" /><sodipodi:namedview
   pagecolor="#ffffff"
   bordercolor="#666666"
   borderopacity="1"
   objecttolerance="10"
   gridtolerance="10"
   guidetolerance="10"
   inkscape:pageopacity="0"
   inkscape:pageshadow="2"
   inkscape:window-width="1080"
   inkscape:window-height="1898"
   id="namedview39"
   showgrid="false"
   inkscape:zoom="15.988077"
   inkscape:cx="18.165869"
   inkscape:cy="18.433282"
   inkscape:window-x="-8"
   inkscape:window-y="-8"
   inkscape:window-maximized="1"
   inkscape:current-layer="Capa_1" />
<path
   style="fill:#000000;"
   d="M26.365,2.802c-3.688-3.717-9.693-3.738-13.409-0.049c-3.505,3.486-3.722,9.025-0.633,12.764  l0.033,0.033c0.624,0.715,0.868,0.98,1.399,1.367c3.711,2.943,9.12,2.713,12.564-0.707C30.035,12.521,30.054,6.517,26.365,2.802z   M24.65,14.526c-2.787,2.771-7.289,2.754-10.057-0.031c-2.768-2.787-2.752-7.291,0.035-10.059c2.785-2.768,7.287-2.75,10.053,0.035  C27.451,7.257,27.436,11.759,24.65,14.526z"
   id="path3" />
<polygon
   style="fill:#000000;"
   points="0,26.937 2.389,29.522 12.717,18.325 10.996,16.601 "
   id="polygon5" />
<path
   style="fill:#000000"
   d="m 24.793,10.38 -10.311,0 0,-1.861 10.311,0 z"
   id="polygon7"
   inkscape:connector-curvature="0"
   sodipodi:nodetypes="ccccc" />
<g
   id="g9">
</g>
<g
   id="g11">
</g>
<g
   id="g13">
</g>
<g
   id="g15">
</g>
<g
   id="g17">
</g>
<g
   id="g19">
</g>
<g
   id="g21">
</g>
<g
   id="g23">
</g>
<g
   id="g25">
</g>
<g
   id="g27">
</g>
<g
   id="g29">
</g>
<g
   id="g31">
</g>
<g
   id="g33">
</g>
<g
   id="g35">
</g>
<g
   id="g37">
</g>
</svg>