<?xml version="1.0" encoding="UTF-8" standalone="no"?>
<!-- Generator: Adobe Illustrator 16.0.4, SVG Export Plug-In . SVG Version: 6.00 Build 0)  -->

<svg
   xmlns:dc="http://purl.org/dc/elements/1.1/"
   xmlns:cc="http://creativecommons.org/ns#"
   xmlns:rdf="http://www.w3.org/1999/02/22-rdf-syntax-ns#"
   xmlns:svg="http://www.w3.org/2000/svg"
   xmlns="http://www.w3.org/2000/svg"
   xmlns:sodipodi="http://sodipodi.sourceforge.net/DTD/sodipodi-0.dtd"
   xmlns:inkscape="http://www.inkscape.org/namespaces/inkscape"
   version="1.1"
   id="Capa_1"
   x="0px"
   y="0px"
   width="22.15px"
   height="23.305px"
   viewBox="0 0 22.15 23.305"
   enable-background="new 0 0 22.15 23.305"
   xml:space="preserve"
   inkscape:version="0.48.2 r9819"
   sodipodi:docname="Flaticon_14387.svg"><metadata
   id="metadata13"><rdf:RDF><cc:Work
       rdf:about=""><dc:format>image/svg+xml</dc:format><dc:type
         rdf:resource="http://purl.org/dc/dcmitype/StillImage" /></cc:Work></rdf:RDF></metadata><defs
   id="defs11" /><sodipodi:namedview
   pagecolor="#ffffff"
   bordercolor="#666666"
   borderopacity="1"
   objecttolerance="10"
   gridtolerance="10"
   guidetolerance="10"
   inkscape:pageopacity="0"
   inkscape:pageshadow="2"
   inkscape:window-width="640"
   inkscape:window-height="480"
   id="namedview9"
   showgrid="false"
   inkscape:zoom="10.126582"
   inkscape:cx="11.075"
   inkscape:cy="11.6525"
   inkscape:window-x="0"
   inkscape:window-y="0"
   inkscape:window-maximized="0"
   inkscape:current-layer="Capa_1" />
<g
   id="g3">
	<polygon
   points="13.963,1.912 13.963,21.393 22.151,23.303 22.151,0  "
   id="polygon5" />
	<path
   d="M0,21.393h12.699V1.912H0V21.393z M6.187,3.641c1.021,0,1.842,0.823,1.842,1.842c0,1.017-0.82,1.842-1.842,1.842   c-1.017,0-1.842-0.825-1.842-1.842C4.345,4.465,5.17,3.641,6.187,3.641z M3.689,9.913c0-1.33,1.12-2.402,2.498-2.402   c1.38,0,2.5,1.072,2.5,2.402v4.089H7.94v6.383H4.434v-6.383H3.689V9.913z"
   id="path7" />
</g>
</svg>