<?xml version="1.0" encoding="UTF-8" standalone="no"?>
<!-- Generator: Adobe Illustrator 17.0.0, SVG Export Plug-In . SVG Version: 6.00 Build 0)  -->

<svg
   xmlns:dc="http://purl.org/dc/elements/1.1/"
   xmlns:cc="http://creativecommons.org/ns#"
   xmlns:rdf="http://www.w3.org/1999/02/22-rdf-syntax-ns#"
   xmlns:svg="http://www.w3.org/2000/svg"
   xmlns="http://www.w3.org/2000/svg"
   xmlns:sodipodi="http://sodipodi.sourceforge.net/DTD/sodipodi-0.dtd"
   xmlns:inkscape="http://www.inkscape.org/namespaces/inkscape"
   version="1.1"
   id="Capa_1"
   x="0px"
   y="0px"
   width="64px"
   height="64px"
   viewBox="0 0 64 64"
   enable-background="new 0 0 64 64"
   xml:space="preserve"
   inkscape:version="0.48.2 r9819"
   sodipodi:docname="Flaticon_13870.svg"><metadata
   id="metadata24"><rdf:RDF><cc:Work
       rdf:about=""><dc:format>image/svg+xml</dc:format><dc:type
         rdf:resource="http://purl.org/dc/dcmitype/StillImage" /></cc:Work></rdf:RDF></metadata><defs
   id="defs22" /><sodipodi:namedview
   pagecolor="#ffffff"
   bordercolor="#666666"
   borderopacity="1"
   objecttolerance="10"
   gridtolerance="10"
   guidetolerance="10"
   inkscape:pageopacity="0"
   inkscape:pageshadow="2"
   inkscape:window-width="640"
   inkscape:window-height="480"
   id="namedview20"
   showgrid="false"
   inkscape:zoom="3.6875"
   inkscape:cx="32"
   inkscape:cy="32"
   inkscape:window-x="0"
   inkscape:window-y="0"
   inkscape:window-maximized="0"
   inkscape:current-layer="Capa_1" />
<path
   d="M40.359,18.251c0-6.387-2.323-11.566-8.917-11.566c-6.41,0-8.917,5.179-8.917,11.566c0,6.386,3.993,11.564,8.917,11.564  C36.366,29.815,40.359,24.637,40.359,18.251z"
   id="path3" />
<path
   d="M49.648,41.954c0.173-1.285,1-2.669,0.956-4.619c-0.063-2.74-1.597-5.309-3.273-7.312c-2.127-2.541-5.82-1.705-8.586,0.12  c-1.836,1.211-4.272,8.205-7.303,8.177c-3.031,0.028-5.466-6.965-7.303-8.177c-2.766-1.824-6.458-2.661-8.585-0.121  c-1.677,2.003-3.211,4.572-3.273,7.313c-0.045,1.95,0.667,3.355,0.955,4.619C16.125,54.625,47.875,55.125,49.648,41.954z"
   id="path5" />
<g
   id="Favoritos_-_Gris">
</g>
<g
   id="Juegos_-_Naranja">
</g>
<g
   id="Comprobar_-_Naranja">
</g>
<g
   id="Música-_Gris">
</g>
<g
   id="Herramientas_-_Gris">
</g>
<g
   id="Carro_de_la_compra_-_Naranja">
</g>
<g
   id="Calendario_-_Gris">
</g>
<g
   id="Música-_Gris_1_">
</g>
<g
   id="Inicio_-_Gris">
</g>
<g
   id="Flecha_5">
</g>
<g
   id="RSS">
</g>
<g
   id="Instalaciones_de_reciclado">
</g>
<g
   id="Aeropuerto">
</g>
</svg>