<?xml version="1.0" encoding="UTF-8" standalone="no"?>
<!-- Generator: Adobe Illustrator 16.0.0, SVG Export Plug-In . SVG Version: 6.00 Build 0)  -->

<svg
   xmlns:dc="http://purl.org/dc/elements/1.1/"
   xmlns:cc="http://creativecommons.org/ns#"
   xmlns:rdf="http://www.w3.org/1999/02/22-rdf-syntax-ns#"
   xmlns:svg="http://www.w3.org/2000/svg"
   xmlns="http://www.w3.org/2000/svg"
   xmlns:sodipodi="http://sodipodi.sourceforge.net/DTD/sodipodi-0.dtd"
   xmlns:inkscape="http://www.inkscape.org/namespaces/inkscape"
   version="1.1"
   id="Capa_1"
   x="0px"
   y="0px"
   width="25.708px"
   height="18.106px"
   viewBox="0 0 25.708 18.106"
   style="enable-background:new 0 0 25.708 18.106;"
   xml:space="preserve"
   inkscape:version="0.48.2 r9819"
   sodipodi:docname="Flaticon_382.svg"><metadata
   id="metadata45"><rdf:RDF><cc:Work
       rdf:about=""><dc:format>image/svg+xml</dc:format><dc:type
         rdf:resource="http://purl.org/dc/dcmitype/StillImage" /></cc:Work></rdf:RDF></metadata><defs
   id="defs43" /><sodipodi:namedview
   pagecolor="#ffffff"
   bordercolor="#666666"
   borderopacity="1"
   objecttolerance="10"
   gridtolerance="10"
   guidetolerance="10"
   inkscape:pageopacity="0"
   inkscape:pageshadow="2"
   inkscape:window-width="640"
   inkscape:window-height="480"
   id="namedview41"
   showgrid="false"
   inkscape:zoom="13.034353"
   inkscape:cx="12.854"
   inkscape:cy="9.0530005"
   inkscape:window-x="0"
   inkscape:window-y="0"
   inkscape:window-maximized="0"
   inkscape:current-layer="Capa_1" />
<path
   d="M23.354,3.43c0,0-1.439-1.239-2.652-0.548c-0.934,0.537-6.867,3.514-9.514,4.84L7.44,5.579  C7.847,4.858,7.915,4.024,7.696,3.22c-0.277-1.016-1.01-1.979-2.092-2.598C3.659-0.493,1.321-0.069,0.388,1.569  c-0.416,0.723-0.484,1.563-0.266,2.373c0.277,1.016,1.01,1.98,2.092,2.602C2.692,6.814,3.19,6.993,3.685,7.085v0.001  c0.004,0.001,0.008,0.001,0.012,0.003c0.039,0.006,0.084,0.015,0.127,0.02c3.086,0.459,4.664,1.33,5.43,1.944  c-0.766,0.616-2.344,1.485-5.43,1.945c-0.043,0.005-0.088,0.013-0.127,0.019c-0.004,0.002-0.008,0.002-0.012,0.004l0,0  c-0.494,0.092-0.992,0.271-1.471,0.542c-1.082,0.622-1.814,1.585-2.092,2.602c-0.219,0.808-0.15,1.648,0.266,2.375  c0.934,1.635,3.271,2.061,5.217,0.946c1.082-0.621,1.814-1.584,2.092-2.602c0.219-0.803,0.15-1.635-0.256-2.357l3.748-2.142  c2.646,1.325,8.58,4.305,9.514,4.839c1.213,0.691,2.652-0.547,2.652-0.547l-9.838-5.624L23.354,3.43z M5.843,4.687  C5.417,5.429,4.173,5.55,3.126,4.951C2.511,4.601,2.048,4.043,1.89,3.463C1.821,3.204,1.776,2.825,1.978,2.478  c0.424-0.741,1.668-0.862,2.715-0.264c0.625,0.355,1.074,0.898,1.234,1.488C5.999,3.958,6.04,4.339,5.843,4.687z M5.927,14.403  c-0.16,0.591-0.609,1.133-1.234,1.489c-1.047,0.6-2.291,0.478-2.715-0.265c-0.201-0.348-0.156-0.726-0.088-0.982  c0.158-0.582,0.621-1.14,1.236-1.492c1.047-0.598,2.291-0.477,2.717,0.266C6.04,13.769,5.999,14.147,5.927,14.403z"
   id="path3" />
<rect
   x="15.864"
   y="8.567"
   width="2.41"
   height="0.992"
   id="rect5" />
<rect
   x="19.478"
   y="8.567"
   width="2.408"
   height="0.992"
   id="rect7" />
<rect
   x="23.302"
   y="8.557"
   width="2.406"
   height="0.991"
   id="rect9" />
<g
   id="g11">
</g>
<g
   id="g13">
</g>
<g
   id="g15">
</g>
<g
   id="g17">
</g>
<g
   id="g19">
</g>
<g
   id="g21">
</g>
<g
   id="g23">
</g>
<g
   id="g25">
</g>
<g
   id="g27">
</g>
<g
   id="g29">
</g>
<g
   id="g31">
</g>
<g
   id="g33">
</g>
<g
   id="g35">
</g>
<g
   id="g37">
</g>
<g
   id="g39">
</g>
</svg>