<?xml version="1.0" encoding="UTF-8" standalone="no"?>
<!-- Generator: Adobe Illustrator 16.0.0, SVG Export Plug-In . SVG Version: 6.00 Build 0)  -->

<svg
   xmlns:dc="http://purl.org/dc/elements/1.1/"
   xmlns:cc="http://creativecommons.org/ns#"
   xmlns:rdf="http://www.w3.org/1999/02/22-rdf-syntax-ns#"
   xmlns:svg="http://www.w3.org/2000/svg"
   xmlns="http://www.w3.org/2000/svg"
   xmlns:sodipodi="http://sodipodi.sourceforge.net/DTD/sodipodi-0.dtd"
   xmlns:inkscape="http://www.inkscape.org/namespaces/inkscape"
   version="1.1"
   id="Capa_1"
   x="0px"
   y="0px"
   width="24.187px"
   height="31.004px"
   viewBox="0 0 24.187 31.004"
   style="enable-background:new 0 0 24.187 31.004;"
   xml:space="preserve"
   inkscape:version="0.48.2 r9819"
   sodipodi:docname="Flaticon_130.svg"><metadata
   id="metadata41"><rdf:RDF><cc:Work
       rdf:about=""><dc:format>image/svg+xml</dc:format><dc:type
         rdf:resource="http://purl.org/dc/dcmitype/StillImage" /></cc:Work></rdf:RDF></metadata><defs
   id="defs39" /><sodipodi:namedview
   pagecolor="#ffffff"
   bordercolor="#666666"
   borderopacity="1"
   objecttolerance="10"
   gridtolerance="10"
   guidetolerance="10"
   inkscape:pageopacity="0"
   inkscape:pageshadow="2"
   inkscape:window-width="640"
   inkscape:window-height="480"
   id="namedview37"
   showgrid="false"
   inkscape:zoom="7.6119211"
   inkscape:cx="12.0935"
   inkscape:cy="15.502"
   inkscape:window-x="0"
   inkscape:window-y="0"
   inkscape:window-maximized="0"
   inkscape:current-layer="Capa_1" />
<path
   style="fill:#000000;"
   d="M18.989,31.004V26.49c0-0.936,0.759-1.697,1.696-1.697l3.501-0.1L18.989,31.004z"
   id="path3" />
<path
   style="fill:#000000;"
   d="M22.487,0H1.697C0.762,0,0,0.762,0,1.697v27.611c0,0.938,0.762,1.695,1.697,1.695h15.604v-6.02  c0-0.936,0.762-1.695,1.699-1.695h5.186V1.697C24.187,0.762,23.427,0,22.487,0z M13.147,3.439c0-0.266,0.133-0.484,0.293-0.484  h7.791c0.163,0,0.291,0.219,0.291,0.484v0.809c0,0.266-0.128,0.482-0.291,0.482H13.44c-0.16,0-0.293-0.217-0.293-0.482V3.439z   M21.558,6.449v0.807c0,0.268-0.133,0.482-0.295,0.482h-7.79c-0.163,0-0.292-0.215-0.292-0.482V6.449  c0-0.268,0.129-0.486,0.292-0.486h7.79C21.425,5.963,21.558,6.182,21.558,6.449z M9.165,5.1h1.98v5.508h-1.98V5.1z M6.045,6.928  h1.979v3.756H6.045V6.928z M2.922,2.359h1.98v8.324h-1.98V2.359z M12.429,25.055c0,0.266-0.152,0.482-0.345,0.482H2.846  c-0.193,0-0.348-0.217-0.348-0.482v-0.809c0-0.266,0.154-0.482,0.348-0.482h9.238c0.192,0,0.345,0.217,0.345,0.482V25.055z   M21.347,21.539c0,0.268-0.292,0.484-0.653,0.484H3.156c-0.365,0-0.658-0.217-0.658-0.484V20.73c0-0.264,0.293-0.484,0.658-0.484  h17.537c0.361,0,0.653,0.221,0.653,0.484V21.539z M21.347,17.988c0,0.27-0.292,0.486-0.653,0.486H3.156  c-0.365,0-0.658-0.217-0.658-0.486v-0.805c0-0.266,0.293-0.482,0.658-0.482h17.537c0.361,0,0.653,0.217,0.653,0.482V17.988z   M21.347,14.51c0,0.266-0.292,0.484-0.653,0.484H3.156c-0.365,0-0.658-0.219-0.658-0.484v-0.807c0-0.268,0.293-0.482,0.658-0.482  h17.537c0.361,0,0.653,0.215,0.653,0.482V14.51z M21.588,10.24c0,0.268-0.13,0.482-0.293,0.482h-7.791  c-0.161,0-0.292-0.215-0.292-0.482V9.434c0-0.268,0.131-0.486,0.292-0.486h7.791c0.163,0,0.293,0.219,0.293,0.486V10.24z"
   id="path5" />
<g
   id="g7">
</g>
<g
   id="g9">
</g>
<g
   id="g11">
</g>
<g
   id="g13">
</g>
<g
   id="g15">
</g>
<g
   id="g17">
</g>
<g
   id="g19">
</g>
<g
   id="g21">
</g>
<g
   id="g23">
</g>
<g
   id="g25">
</g>
<g
   id="g27">
</g>
<g
   id="g29">
</g>
<g
   id="g31">
</g>
<g
   id="g33">
</g>
<g
   id="g35">
</g>
</svg>