<?xml version="1.0" encoding="UTF-8" standalone="no"?>
<!-- Generator: Adobe Illustrator 16.0.4, SVG Export Plug-In . SVG Version: 6.00 Build 0)  -->

<svg
   xmlns:dc="http://purl.org/dc/elements/1.1/"
   xmlns:cc="http://creativecommons.org/ns#"
   xmlns:rdf="http://www.w3.org/1999/02/22-rdf-syntax-ns#"
   xmlns:svg="http://www.w3.org/2000/svg"
   xmlns="http://www.w3.org/2000/svg"
   xmlns:sodipodi="http://sodipodi.sourceforge.net/DTD/sodipodi-0.dtd"
   xmlns:inkscape="http://www.inkscape.org/namespaces/inkscape"
   version="1.1"
   id="Capa_1"
   x="0px"
   y="0px"
   width="22.604px"
   height="22.342px"
   viewBox="0 0 22.604 22.342"
   enable-background="new 0 0 22.604 22.342"
   xml:space="preserve"
   inkscape:version="0.48.2 r9819"
   sodipodi:docname="Flaticon_15616.svg"><metadata
   id="metadata21"><rdf:RDF><cc:Work
       rdf:about=""><dc:format>image/svg+xml</dc:format><dc:type
         rdf:resource="http://purl.org/dc/dcmitype/StillImage" /></cc:Work></rdf:RDF></metadata><defs
   id="defs19" /><sodipodi:namedview
   pagecolor="#ffffff"
   bordercolor="#666666"
   borderopacity="1"
   objecttolerance="10"
   gridtolerance="10"
   guidetolerance="10"
   inkscape:pageopacity="0"
   inkscape:pageshadow="2"
   inkscape:window-width="640"
   inkscape:window-height="480"
   id="namedview17"
   showgrid="false"
   inkscape:zoom="10.563066"
   inkscape:cx="11.302"
   inkscape:cy="11.171"
   inkscape:window-x="0"
   inkscape:window-y="0"
   inkscape:window-maximized="0"
   inkscape:current-layer="Capa_1" />
<circle
   cx="3.828"
   cy="13.507"
   r="2.825"
   id="circle3" />
<circle
   cx="11.301"
   cy="13.507"
   r="2.825"
   id="circle5" />
<circle
   cx="18.773"
   cy="13.507"
   r="2.825"
   id="circle7" />
<path
   d="M18.773,16.617c-1.832,0-3.358,1.237-3.735,2.893c-0.376-1.653-1.903-2.893-3.737-2.893c-1.833,0-3.36,1.237-3.735,2.893  c-0.377-1.653-1.904-2.893-3.737-2.893C1.714,16.617,0,18.265,0,20.298v2.044h22.604v-2.044  C22.604,18.265,20.889,16.617,18.773,16.617L18.773,16.617z"
   id="path9" />
<path
   d="M15.1,5.238c-1.559,0-2.823,1.266-2.823,2.825s1.265,2.826,2.823,2.826c1.564,0,2.827-1.267,2.827-2.826  S16.664,5.238,15.1,5.238z"
   id="path11" />
<circle
   cx="7.5"
   cy="8.064"
   r="2.826"
   id="circle13" />
<circle
   cx="11.302"
   cy="2.825"
   r="2.825"
   id="circle15" />
</svg>