<?xml version="1.0" encoding="UTF-8" standalone="no"?>
<!-- Generator: Adobe Illustrator 16.0.0, SVG Export Plug-In . SVG Version: 6.00 Build 0)  -->

<svg
   xmlns:dc="http://purl.org/dc/elements/1.1/"
   xmlns:cc="http://creativecommons.org/ns#"
   xmlns:rdf="http://www.w3.org/1999/02/22-rdf-syntax-ns#"
   xmlns:svg="http://www.w3.org/2000/svg"
   xmlns="http://www.w3.org/2000/svg"
   xmlns:sodipodi="http://sodipodi.sourceforge.net/DTD/sodipodi-0.dtd"
   xmlns:inkscape="http://www.inkscape.org/namespaces/inkscape"
   version="1.1"
   id="Capa_1"
   x="0px"
   y="0px"
   width="94px"
   height="94px"
   viewBox="0 0 94 94"
   style="enable-background:new 0 0 94 94;"
   xml:space="preserve"
   inkscape:version="0.48.2 r9819"
   sodipodi:docname="Flaticon_3637.svg"><metadata
   id="metadata39"><rdf:RDF><cc:Work
       rdf:about=""><dc:format>image/svg+xml</dc:format><dc:type
         rdf:resource="http://purl.org/dc/dcmitype/StillImage" /></cc:Work></rdf:RDF></metadata><defs
   id="defs37" /><sodipodi:namedview
   pagecolor="#ffffff"
   bordercolor="#666666"
   borderopacity="1"
   objecttolerance="10"
   gridtolerance="10"
   guidetolerance="10"
   inkscape:pageopacity="0"
   inkscape:pageshadow="2"
   inkscape:window-width="640"
   inkscape:window-height="480"
   id="namedview35"
   showgrid="false"
   inkscape:zoom="2.5106383"
   inkscape:cx="47"
   inkscape:cy="47"
   inkscape:window-x="0"
   inkscape:window-y="0"
   inkscape:window-maximized="0"
   inkscape:current-layer="Capa_1" />
<path
   d="M86.75,70.981V59.5c0-6.934-4.594-17.25-17.25-17.25h-10c-7.06,0-7.717-3.464-7.75-5.25V23.02  C56.014,21.178,59,16.939,59,12c0-6.626-5.373-12-12-12c-6.627,0-12,5.374-12,12c0,4.939,2.986,9.178,7.25,11.02V37  c0,1.294-0.374,5.25-7.75,5.25h-10c-12.656,0-17.25,10.316-17.25,17.25v11.481C2.986,72.822,0,77.062,0,82c0,6.627,5.373,12,12,12  c6.627,0,12-5.373,12-12c0-4.938-2.986-9.178-7.25-11.019V59.5c0-1.294,0.374-7.75,7.75-7.75h10c3.035,0,5.595-0.459,7.75-1.237  v20.469C37.986,72.822,35,77.062,35,82c0,6.627,5.373,12,12,12c6.627,0,12-5.373,12-12c0-4.938-2.986-9.178-7.25-11.019V50.513  c2.155,0.778,4.715,1.237,7.75,1.237h10c7.06,0,7.717,5.964,7.75,7.75v11.481C72.986,72.822,70,77.062,70,82c0,6.627,5.373,12,12,12  c6.627,0,12-5.373,12-12C94,77.062,91.014,72.822,86.75,70.981z M18.923,82c0,3.823-3.101,6.923-6.923,6.923  c-3.823,0-6.923-3.1-6.923-6.923s3.1-6.923,6.923-6.923C15.822,75.077,18.923,78.177,18.923,82z M40.077,12  c0-3.823,3.101-6.923,6.923-6.923c3.823,0,6.923,3.1,6.923,6.923s-3.1,6.923-6.923,6.923C43.178,18.923,40.077,15.823,40.077,12z   M53.923,82c0,3.823-3.1,6.923-6.923,6.923c-3.822,0-6.923-3.1-6.923-6.923s3.101-6.923,6.923-6.923  C50.823,75.077,53.923,78.177,53.923,82z M82,88.923c-3.822,0-6.923-3.1-6.923-6.923s3.101-6.923,6.923-6.923  c3.823,0,6.923,3.1,6.923,6.923S85.823,88.923,82,88.923z"
   id="path3" />
<g
   id="g5">
</g>
<g
   id="g7">
</g>
<g
   id="g9">
</g>
<g
   id="g11">
</g>
<g
   id="g13">
</g>
<g
   id="g15">
</g>
<g
   id="g17">
</g>
<g
   id="g19">
</g>
<g
   id="g21">
</g>
<g
   id="g23">
</g>
<g
   id="g25">
</g>
<g
   id="g27">
</g>
<g
   id="g29">
</g>
<g
   id="g31">
</g>
<g
   id="g33">
</g>
</svg>