<?xml version="1.0" encoding="UTF-8" standalone="no"?>
<!-- Generator: Adobe Illustrator 17.0.0, SVG Export Plug-In . SVG Version: 6.00 Build 0)  -->

<svg
   xmlns:dc="http://purl.org/dc/elements/1.1/"
   xmlns:cc="http://creativecommons.org/ns#"
   xmlns:rdf="http://www.w3.org/1999/02/22-rdf-syntax-ns#"
   xmlns:svg="http://www.w3.org/2000/svg"
   xmlns="http://www.w3.org/2000/svg"
   xmlns:sodipodi="http://sodipodi.sourceforge.net/DTD/sodipodi-0.dtd"
   xmlns:inkscape="http://www.inkscape.org/namespaces/inkscape"
   version="1.1"
   id="Capa_1"
   x="0px"
   y="0px"
   width="64px"
   height="64px"
   viewBox="0 0 64 64"
   enable-background="new 0 0 64 64"
   xml:space="preserve"
   inkscape:version="0.48.2 r9819"
   sodipodi:docname="Flaticon_13941.svg"><metadata
   id="metadata9"><rdf:RDF><cc:Work
       rdf:about=""><dc:format>image/svg+xml</dc:format><dc:type
         rdf:resource="http://purl.org/dc/dcmitype/StillImage" /></cc:Work></rdf:RDF></metadata><defs
   id="defs7" /><sodipodi:namedview
   pagecolor="#ffffff"
   bordercolor="#666666"
   borderopacity="1"
   objecttolerance="10"
   gridtolerance="10"
   guidetolerance="10"
   inkscape:pageopacity="0"
   inkscape:pageshadow="2"
   inkscape:window-width="640"
   inkscape:window-height="480"
   id="namedview5"
   showgrid="false"
   inkscape:zoom="3.6875"
   inkscape:cx="32"
   inkscape:cy="32"
   inkscape:window-x="0"
   inkscape:window-y="0"
   inkscape:window-maximized="0"
   inkscape:current-layer="Capa_1" />
<path
   d="M55.442,20.222v-1.194c0-1.433-1.166-2.599-2.598-2.599H33.172c-1.657,0-3-0.095-3-0.211v-0.212  c0-1.433-1.166-2.599-2.599-2.599H13.93c-1.433,0-2.599,1.166-2.599,2.599c0,0,0,0.115,0,0.258c0,0.143-0.774,0.475-1.278,1.223  c-0.29,0.431-0.462,0.964-0.462,1.54c0,0,0,0.533,0,1.191c0,0.657-0.074,1.19-0.165,1.19H9.261c-0.606,0-1.074,0.491-1.043,1.097  l1.354,26.739c0.03,0.606,0.547,1.097,1.154,1.097h43.216c0.607,0,1.124-0.491,1.154-1.097l1.354-26.739  c0.015-0.297-0.09-0.564-0.272-0.76C55.866,21.411,55.442,20.881,55.442,20.222z M13.87,18.371c0.29-0.431,0.462-0.964,0.462-1.54  c0,0,0-0.095,0-0.212c0-0.117,1.343-0.211,3-0.211h6.84c1.657,0,3,0.095,3,0.211v0.212c0,1.433,1.166,2.599,2.598,2.599h19.672  c1.657,0,3,0.443,3,0.99s-1.343,0.99-3,0.99h-33.85c-1.657,0-3-0.464-3-1.036C12.592,19.8,13.366,19.119,13.87,18.371z"
   id="path3" />
</svg>