<?xml version="1.0" encoding="UTF-8" standalone="no"?>
<!-- Created with Inkscape (http://www.inkscape.org/) -->

<svg
   xmlns:dc="http://purl.org/dc/elements/1.1/"
   xmlns:cc="http://creativecommons.org/ns#"
   xmlns:rdf="http://www.w3.org/1999/02/22-rdf-syntax-ns#"
   xmlns:svg="http://www.w3.org/2000/svg"
   xmlns="http://www.w3.org/2000/svg"
   xmlns:sodipodi="http://sodipodi.sourceforge.net/DTD/sodipodi-0.dtd"
   xmlns:inkscape="http://www.inkscape.org/namespaces/inkscape"
   width="78"
   height="78"
   id="svg8477"
   version="1.1"
   inkscape:version="0.48.2 r9819"
   sodipodi:docname="fav-off.svg">
  <defs
     id="defs8479" />
  <sodipodi:namedview
     id="base"
     pagecolor="#ffffff"
     bordercolor="#666666"
     borderopacity="1.0"
     inkscape:pageopacity="0.0"
     inkscape:pageshadow="2"
     inkscape:zoom="5.6"
     inkscape:cx="38.18031"
     inkscape:cy="20.69577"
     inkscape:document-units="px"
     inkscape:current-layer="layer1"
     showgrid="false"
     fit-margin-top="0"
     fit-margin-left="0"
     fit-margin-right="0"
     fit-margin-bottom="0"
     inkscape:window-width="1080"
     inkscape:window-height="1898"
     inkscape:window-x="-8"
     inkscape:window-y="-8"
     inkscape:window-maximized="1" />
  <metadata
     id="metadata8482">
    <rdf:RDF>
      <cc:Work
         rdf:about="">
        <dc:format>image/svg+xml</dc:format>
        <dc:type
           rdf:resource="http://purl.org/dc/dcmitype/StillImage" />
        <dc:title></dc:title>
      </cc:Work>
    </rdf:RDF>
  </metadata>
  <g
     inkscape:label="Calque 1"
     inkscape:groupmode="layer"
     id="layer1"
     transform="translate(-715.62276,-597.32319)">
    <g
       id="g4726-0-4-5"
       transform="matrix(2.1350678,0,0,2.1350678,720.19373,603.48681)"
       style="fill:none;stroke:#000000;stroke-width:4.01285267;stroke-miterlimit:4;stroke-opacity:1;stroke-dasharray:none">
      <path
         id="path4688-2-60-9"
         d="M 32.144,11.725 C 31.652,10.182 28.933,9.827 26.054,9.446 24.476,9.241 22.683,9.003 22.142,8.604 21.595,8.208 20.837,6.569 20.165,5.122 18.942,2.49 17.786,0.008 16.169,0 l -0.033,0 c -1.602,0.027 -2.773,2.479 -4.014,5.082 -0.684,1.439 -1.465,3.07 -2.008,3.461 -0.55,0.395 -2.343,0.615 -3.925,0.807 -2.879,0.35 -5.6,0.678 -6.11,2.213 -0.505,1.539 1.481,3.426 3.586,5.424 1.157,1.098 2.466,2.34 2.671,2.98 0.205,0.641 -0.143,2.416 -0.447,3.979 -0.558,2.844 -1.084,5.537 0.22,6.498 0.312,0.225 0.702,0.338 1.167,0.328 1.332,-0.023 3.245,-1.057 5.098,-2.061 1.387,-0.76 2.959,-1.613 3.66,-1.623 0.678,0.002 2.254,0.881 3.646,1.654 1.891,1.053 3.852,2.141 5.186,2.119 0.416,-0.008 0.77,-0.115 1.059,-0.322 1.314,-0.945 0.814,-3.637 0.285,-6.492 -0.291,-1.566 -0.615,-3.344 -0.408,-3.984 0.211,-0.637 1.535,-1.867 2.703,-2.955 2.121,-1.977 4.129,-3.84 3.639,-5.383 z"
         style="fill:none;stroke:#000000;stroke-width:4.01285267;stroke-miterlimit:4;stroke-opacity:1;stroke-dasharray:none"
         inkscape:connector-curvature="0"
         sodipodi:nodetypes="cccccccccccccccccccccccc" />
      <g
         id="g4690-8-6-8"
         style="fill:none;stroke:#000000;stroke-width:4.01285267;stroke-miterlimit:4;stroke-opacity:1;stroke-dasharray:none" />
      <g
         id="g4692-6-6-4"
         style="fill:none;stroke:#000000;stroke-width:4.01285267;stroke-miterlimit:4;stroke-opacity:1;stroke-dasharray:none" />
      <g
         id="g4694-0-1-0"
         style="fill:none;stroke:#000000;stroke-width:4.01285267;stroke-miterlimit:4;stroke-opacity:1;stroke-dasharray:none" />
      <g
         id="g4696-2-8-7"
         style="fill:none;stroke:#000000;stroke-width:4.01285267;stroke-miterlimit:4;stroke-opacity:1;stroke-dasharray:none" />
      <g
         id="g4698-4-4-6"
         style="fill:none;stroke:#000000;stroke-width:4.01285267;stroke-miterlimit:4;stroke-opacity:1;stroke-dasharray:none" />
      <g
         id="g4700-8-9-3"
         style="fill:none;stroke:#000000;stroke-width:4.01285267;stroke-miterlimit:4;stroke-opacity:1;stroke-dasharray:none" />
      <g
         id="g4702-6-6-6"
         style="fill:none;stroke:#000000;stroke-width:4.01285267;stroke-miterlimit:4;stroke-opacity:1;stroke-dasharray:none" />
      <g
         id="g4704-5-3-1"
         style="fill:none;stroke:#000000;stroke-width:4.01285267;stroke-miterlimit:4;stroke-opacity:1;stroke-dasharray:none" />
      <g
         id="g4706-0-7-5"
         style="fill:none;stroke:#000000;stroke-width:4.01285267;stroke-miterlimit:4;stroke-opacity:1;stroke-dasharray:none" />
      <g
         id="g4708-9-8-4"
         style="fill:none;stroke:#000000;stroke-width:4.01285267;stroke-miterlimit:4;stroke-opacity:1;stroke-dasharray:none" />
      <g
         id="g4710-0-8-2"
         style="fill:none;stroke:#000000;stroke-width:4.01285267;stroke-miterlimit:4;stroke-opacity:1;stroke-dasharray:none" />
      <g
         id="g4712-0-2-0"
         style="fill:none;stroke:#000000;stroke-width:4.01285267;stroke-miterlimit:4;stroke-opacity:1;stroke-dasharray:none" />
      <g
         id="g4714-6-9-9"
         style="fill:none;stroke:#000000;stroke-width:4.01285267;stroke-miterlimit:4;stroke-opacity:1;stroke-dasharray:none" />
      <g
         id="g4716-1-1-7"
         style="fill:none;stroke:#000000;stroke-width:4.01285267;stroke-miterlimit:4;stroke-opacity:1;stroke-dasharray:none" />
      <g
         id="g4718-3-3-3"
         style="fill:none;stroke:#000000;stroke-width:4.01285267;stroke-miterlimit:4;stroke-opacity:1;stroke-dasharray:none" />
    </g>
    <path
       style="fill:none;stroke:#000000;stroke-width:10;stroke-linecap:round;stroke-linejoin:miter;stroke-miterlimit:4;stroke-opacity:1;stroke-dasharray:none"
       d="m 745.3376,638.43232 18.5,0"
       id="path7748-7"
       inkscape:connector-curvature="0" />
    <path
       style="fill:none;stroke:#000000;stroke-width:10;stroke-linecap:round;stroke-linejoin:miter;stroke-miterlimit:4;stroke-opacity:1;stroke-dasharray:none"
       d="m 754.5876,629.18232 0,18.5"
       id="path7748-7-2"
       inkscape:connector-curvature="0" />
  </g>
</svg>
