<?xml version="1.0" encoding="UTF-8" standalone="no"?>
<!-- Generator: Adobe Illustrator 16.0.4, SVG Export Plug-In . SVG Version: 6.00 Build 0)  -->

<svg
   xmlns:dc="http://purl.org/dc/elements/1.1/"
   xmlns:cc="http://creativecommons.org/ns#"
   xmlns:rdf="http://www.w3.org/1999/02/22-rdf-syntax-ns#"
   xmlns:svg="http://www.w3.org/2000/svg"
   xmlns="http://www.w3.org/2000/svg"
   xmlns:sodipodi="http://sodipodi.sourceforge.net/DTD/sodipodi-0.dtd"
   xmlns:inkscape="http://www.inkscape.org/namespaces/inkscape"
   version="1.1"
   id="Capa_1"
   x="0px"
   y="0px"
   width="612px"
   height="792px"
   viewBox="0 0 612 792"
   enable-background="new 0 0 612 792"
   xml:space="preserve"
   inkscape:version="0.48.2 r9819"
   sodipodi:docname="Flaticon_9570.svg"><metadata
   id="metadata9"><rdf:RDF><cc:Work
       rdf:about=""><dc:format>image/svg+xml</dc:format><dc:type
         rdf:resource="http://purl.org/dc/dcmitype/StillImage" /></cc:Work></rdf:RDF></metadata><defs
   id="defs7" /><sodipodi:namedview
   pagecolor="#ffffff"
   bordercolor="#666666"
   borderopacity="1"
   objecttolerance="10"
   gridtolerance="10"
   guidetolerance="10"
   inkscape:pageopacity="0"
   inkscape:pageshadow="2"
   inkscape:window-width="640"
   inkscape:window-height="480"
   id="namedview5"
   showgrid="false"
   inkscape:zoom="0.2979798"
   inkscape:cx="306"
   inkscape:cy="396"
   inkscape:window-x="1255"
   inkscape:window-y="769"
   inkscape:window-maximized="0"
   inkscape:current-layer="Capa_1" />
<path
   d="M79.787,243.598c-0.399-2.391-0.598-4.781-0.598-7.172v-14.344c0-7.968,2.391-14.742,7.172-20.32  c4.781-5.578,10.559-8.367,17.332-8.367h28.09l31.078-40.043h71.719l27.492,40.043h246.235c6.773,0,12.553,2.789,17.332,8.367  c4.781,5.578,7.172,12.351,7.172,20.32v14.344c0,2.391-0.199,4.781-0.598,7.172H79.787z M569.864,307.546v331.104H42.134V307.547  c0-10.359,3.586-19.125,10.758-26.297s15.938-10.758,26.297-10.758l453.619-0.001c10.36,0,19.125,3.586,26.299,10.758  C566.278,288.421,569.864,297.187,569.864,307.546z M378.018,351.773h95.625v-35.859h-95.625V351.773z M378.018,471.303h95.625  v-35.857h-95.625V471.303z M473.643,554.977h-95.625v35.859h95.625V554.977z M509.502,495.211h-95.625v35.859h95.625V495.211z   M509.502,375.68h-95.625v35.859h95.625V375.68z"
   id="path3" />
</svg>