<?xml version="1.0" encoding="UTF-8" standalone="no"?>
<!-- Generator: Adobe Illustrator 17.0.0, SVG Export Plug-In . SVG Version: 6.00 Build 0)  -->

<svg
   xmlns:dc="http://purl.org/dc/elements/1.1/"
   xmlns:cc="http://creativecommons.org/ns#"
   xmlns:rdf="http://www.w3.org/1999/02/22-rdf-syntax-ns#"
   xmlns:svg="http://www.w3.org/2000/svg"
   xmlns="http://www.w3.org/2000/svg"
   xmlns:sodipodi="http://sodipodi.sourceforge.net/DTD/sodipodi-0.dtd"
   xmlns:inkscape="http://www.inkscape.org/namespaces/inkscape"
   version="1.1"
   id="Capa_1"
   x="0px"
   y="0px"
   width="22.505px"
   height="26.738px"
   viewBox="0 0 22.505 26.738"
   enable-background="new 0 0 22.505 26.738"
   xml:space="preserve"
   inkscape:version="0.48.2 r9819"
   sodipodi:docname="Flaticon_13466.svg"><metadata
   id="metadata9"><rdf:RDF><cc:Work
       rdf:about=""><dc:format>image/svg+xml</dc:format><dc:type
         rdf:resource="http://purl.org/dc/dcmitype/StillImage" /></cc:Work></rdf:RDF></metadata><defs
   id="defs7" /><sodipodi:namedview
   pagecolor="#ffffff"
   bordercolor="#666666"
   borderopacity="1"
   objecttolerance="10"
   gridtolerance="10"
   guidetolerance="10"
   inkscape:pageopacity="0"
   inkscape:pageshadow="2"
   inkscape:window-width="640"
   inkscape:window-height="480"
   id="namedview5"
   showgrid="false"
   inkscape:zoom="8.8263891"
   inkscape:cx="11.2525"
   inkscape:cy="13.369"
   inkscape:window-x="0"
   inkscape:window-y="0"
   inkscape:window-maximized="0"
   inkscape:current-layer="Capa_1" />
<path
   d="M14.35,5.957H4.095V4.233H14.35V5.957z M18.375,4.233h-2.546v1.724h2.546V4.233z M4.095,9.26h14.281V7.536H4.095V9.26z   M10.908,10.84v1.724h7.467V10.84H10.908z M9.463,10.84H4.095v1.724h5.368V10.84z M4.095,15.867h14.281v-1.724H4.095V15.867z   M12.182,17.446H4.095v1.724h8.087V17.446z M13.592,17.446v1.724h4.783v-1.724H13.592z M4.095,22.474h14.281V20.75H4.095V22.474z   M22.505,3.167v20.404c0,1.746-1.244,3.167-2.773,3.167H2.773C1.244,26.738,0,25.317,0,23.571V3.167C0,1.421,1.244,0,2.773,0h16.959  C21.261,0,22.505,1.421,22.505,3.167z M20.853,3.167c0-0.821-0.513-1.515-1.121-1.515H2.773c-0.608,0-1.121,0.694-1.121,1.515  v20.404c0,0.821,0.513,1.515,1.121,1.515h16.959c0.608,0,1.121-0.694,1.121-1.515V3.167z"
   id="path3" />
</svg>