<?xml version="1.0" encoding="UTF-8" standalone="no"?>
<!-- Generator: IcoMoon.io -->

<svg
   xmlns:dc="http://purl.org/dc/elements/1.1/"
   xmlns:cc="http://creativecommons.org/ns#"
   xmlns:rdf="http://www.w3.org/1999/02/22-rdf-syntax-ns#"
   xmlns:svg="http://www.w3.org/2000/svg"
   xmlns="http://www.w3.org/2000/svg"
   xmlns:sodipodi="http://sodipodi.sourceforge.net/DTD/sodipodi-0.dtd"
   xmlns:inkscape="http://www.inkscape.org/namespaces/inkscape"
   version="1.1"
   id="Layer_1"
   x="0px"
   y="0px"
   width="48px"
   height="48px"
   viewBox="0 0 48 48"
   enable-background="new 0 0 16 16"
   xml:space="preserve"
   fill="#000000"
   inkscape:version="0.48.2 r9819"
   sodipodi:docname="Flaticon_3969.svg"><metadata
   id="metadata9"><rdf:RDF><cc:Work
       rdf:about=""><dc:format>image/svg+xml</dc:format><dc:type
         rdf:resource="http://purl.org/dc/dcmitype/StillImage" /></cc:Work></rdf:RDF></metadata><defs
   id="defs7" /><sodipodi:namedview
   pagecolor="#ffffff"
   bordercolor="#666666"
   borderopacity="1"
   objecttolerance="10"
   gridtolerance="10"
   guidetolerance="10"
   inkscape:pageopacity="0"
   inkscape:pageshadow="2"
   inkscape:window-width="640"
   inkscape:window-height="480"
   id="namedview5"
   showgrid="false"
   inkscape:zoom="4.9166667"
   inkscape:cx="24"
   inkscape:cy="24"
   inkscape:window-x="0"
   inkscape:window-y="0"
   inkscape:window-maximized="0"
   inkscape:current-layer="Layer_1" /> <path
   d="M 42.00,42.00l-3.00,0.00 l0.00,3.00 c0.00,1.659-1.341,3.00-3.00,3.00s-3.00-1.341-3.00-3.00l0.00,-3.00 l-3.00,0.00 c-1.659,0.00-3.00-1.341-3.00-3.00 s 1.341-3.00, 3.00-3.00l3.00,0.00 l0.00,-3.00 c0.00-1.659, 1.341-3.00, 3.00-3.00s 3.00,1.341, 3.00,3.00l0.00,3.00 l3.00,0.00 c 1.659,0.00, 3.00,1.341, 3.00,3.00S 43.659,42.00, 42.00,42.00z M 27.423,30.423 C 23.715,31.536, 21.00,34.935, 21.00,39.00c0.00,3.915, 2.511,7.209, 6.00,8.448L27.00,48.00 L6.00,48.00 c-1.656,0.00-3.00-1.341-3.00-3.00c0.00-6.00, 5.799-11.598, 11.727-13.812 C 11.304,29.073, 9.00,25.317, 9.00,21.00L9.00,18.00 c0.00-6.627, 5.373-12.00, 12.00-12.00s 12.00,5.373, 12.00,12.00l0.00,3.00 c0.00,1.398-0.312,2.697-0.756,3.939 C 29.961,26.025, 28.161,27.96, 27.423,30.423z"
   id="path3" /></svg>