<?xml version="1.0" encoding="UTF-8" standalone="no"?>
<!-- Generator: Adobe Illustrator 16.0.4, SVG Export Plug-In . SVG Version: 6.00 Build 0)  -->

<svg
   xmlns:dc="http://purl.org/dc/elements/1.1/"
   xmlns:cc="http://creativecommons.org/ns#"
   xmlns:rdf="http://www.w3.org/1999/02/22-rdf-syntax-ns#"
   xmlns:svg="http://www.w3.org/2000/svg"
   xmlns="http://www.w3.org/2000/svg"
   xmlns:sodipodi="http://sodipodi.sourceforge.net/DTD/sodipodi-0.dtd"
   xmlns:inkscape="http://www.inkscape.org/namespaces/inkscape"
   version="1.1"
   id="Capa_1"
   x="0px"
   y="0px"
   width="300px"
   height="300px"
   viewBox="0 0 300 300"
   style="enable-background:new 0 0 300 300;"
   xml:space="preserve"
   inkscape:version="0.48.2 r9819"
   sodipodi:docname="Flaticon_12100.svg"><metadata
   id="metadata17"><rdf:RDF><cc:Work
       rdf:about=""><dc:format>image/svg+xml</dc:format><dc:type
         rdf:resource="http://purl.org/dc/dcmitype/StillImage" /></cc:Work></rdf:RDF></metadata><defs
   id="defs15" /><sodipodi:namedview
   pagecolor="#ffffff"
   bordercolor="#666666"
   borderopacity="1"
   objecttolerance="10"
   gridtolerance="10"
   guidetolerance="10"
   inkscape:pageopacity="0"
   inkscape:pageshadow="2"
   inkscape:window-width="640"
   inkscape:window-height="480"
   id="namedview13"
   showgrid="false"
   inkscape:zoom="0.78666667"
   inkscape:cx="150"
   inkscape:cy="150"
   inkscape:window-x="0"
   inkscape:window-y="0"
   inkscape:window-maximized="0"
   inkscape:current-layer="Capa_1" />
<path
   d="M234.396,16.127v67.921c0,10.77-8.82,19.59-19.6,19.59H84.187c-10.77,0-19.579-8.82-19.579-19.59V16.147h-16.71l0,0  c-13.154,0-23.893,11.417-23.893,25.378v219.263c0,12.699,9.769,23.084,21.721,23.084h208.554c11.951,0,21.721-10.385,21.721-23.075  V67.096L234.396,16.127z M237.67,247.422c0,9.406-7.688,17.084-17.084,17.084H82.349c-9.396,0-17.074-7.678-17.074-17.084v-71.194  c0-9.406,7.678-17.085,17.074-17.085h138.237c9.396,0,17.084,7.679,17.084,17.085V247.422z"
   id="path3" />
<path
   d="M219.119,187.643H83.795c-0.799,0-1.447,0.648-1.447,1.447v3.521c0,0.799,0.648,1.447,1.447,1.447h135.324  c0.799,0,1.446-0.648,1.446-1.447v-3.521C220.565,188.291,219.918,187.643,219.119,187.643z"
   id="path5" />
<path
   d="M219.119,200.475H83.795c-0.799,0-1.447,0.646-1.447,1.446v3.521c0,0.8,0.648,1.446,1.447,1.446h135.324  c0.799,0,1.446-0.646,1.446-1.446v-3.521C220.565,201.121,219.918,200.475,219.119,200.475z"
   id="path7" />
<path
   d="M219.119,213.305H83.795c-0.799,0-1.447,0.648-1.447,1.447v3.521c0,0.799,0.648,1.447,1.447,1.447h135.324  c0.799,0,1.446-0.648,1.446-1.447v-3.521C220.565,213.953,219.918,213.305,219.119,213.305z"
   id="path9" />
<path
   d="M195.838,86.421h20.322c1.979,0,3.598-1.616,3.598-3.594V16.158h-27.492V82.85  C192.266,84.816,193.876,86.421,195.838,86.421z"
   id="path11" />
</svg>