<?xml version="1.0" encoding="UTF-8" standalone="no"?>
<!-- Generator: Adobe Illustrator 17.0.0, SVG Export Plug-In . SVG Version: 6.00 Build 0)  -->

<svg
   xmlns:dc="http://purl.org/dc/elements/1.1/"
   xmlns:cc="http://creativecommons.org/ns#"
   xmlns:rdf="http://www.w3.org/1999/02/22-rdf-syntax-ns#"
   xmlns:svg="http://www.w3.org/2000/svg"
   xmlns="http://www.w3.org/2000/svg"
   xmlns:sodipodi="http://sodipodi.sourceforge.net/DTD/sodipodi-0.dtd"
   xmlns:inkscape="http://www.inkscape.org/namespaces/inkscape"
   version="1.1"
   id="Capa_1"
   x="0px"
   y="0px"
   width="64px"
   height="64px"
   viewBox="0 0 64 64"
   enable-background="new 0 0 64 64"
   xml:space="preserve"
   inkscape:version="0.48.2 r9819"
   sodipodi:docname="Flaticon_14829.svg"><metadata
   id="metadata13"><rdf:RDF><cc:Work
       rdf:about=""><dc:format>image/svg+xml</dc:format><dc:type
         rdf:resource="http://purl.org/dc/dcmitype/StillImage" /></cc:Work></rdf:RDF></metadata><defs
   id="defs11" /><sodipodi:namedview
   pagecolor="#ffffff"
   bordercolor="#666666"
   borderopacity="1"
   objecttolerance="10"
   gridtolerance="10"
   guidetolerance="10"
   inkscape:pageopacity="0"
   inkscape:pageshadow="2"
   inkscape:window-width="640"
   inkscape:window-height="480"
   id="namedview9"
   showgrid="false"
   inkscape:zoom="3.6875"
   inkscape:cx="32"
   inkscape:cy="32"
   inkscape:window-x="0"
   inkscape:window-y="0"
   inkscape:window-maximized="0"
   inkscape:current-layer="Capa_1" />
<path
   d="M53,54.749H14.48c-1.657,0-3-1.343-3-3V12.251c0-1.657,1.343-3,3-3h30.854c1.657,0,3.965,0.934,5.156,2.086l3.354,3.244  C55.035,15.733,56,18.01,56,19.667v32.082C56,53.405,54.657,54.749,53,54.749z"
   id="path3" />
<path
   fill="#FFFFFF"
   d="M42.875,28.75h-20.5c-1.657,0-3-1.343-3-3V15.5c0-1.657,1.343-3,3-3h20.5c1.657,0,3,1.343,3,3v10.25  C45.875,27.407,44.532,28.75,42.875,28.75z"
   id="path5" />
<path
   d="M39.25,26c1.519,0,2.75-1.343,2.75-3v-5c0-1.657-1.231-3-2.75-3c-1.519,0-2.75,1.343-2.75,3v5  C36.5,24.657,37.731,26,39.25,26z"
   id="path7" />
</svg>