<?xml version="1.0" encoding="UTF-8" standalone="no"?>
<!-- Generator: Adobe Illustrator 15.0.0, SVG Export Plug-In . SVG Version: 6.00 Build 0)  -->

<svg
   xmlns:dc="http://purl.org/dc/elements/1.1/"
   xmlns:cc="http://creativecommons.org/ns#"
   xmlns:rdf="http://www.w3.org/1999/02/22-rdf-syntax-ns#"
   xmlns:svg="http://www.w3.org/2000/svg"
   xmlns="http://www.w3.org/2000/svg"
   xmlns:sodipodi="http://sodipodi.sourceforge.net/DTD/sodipodi-0.dtd"
   xmlns:inkscape="http://www.inkscape.org/namespaces/inkscape"
   version="1.1"
   id="Layer_1"
   x="0px"
   y="0px"
   width="26px"
   height="26px"
   viewBox="0 0 26 26"
   enable-background="new 0 0 26 26"
   xml:space="preserve"
   inkscape:version="0.48.2 r9819"
   sodipodi:docname="Flaticon_2075.svg"><metadata
   id="metadata21"><rdf:RDF><cc:Work
       rdf:about=""><dc:format>image/svg+xml</dc:format><dc:type
         rdf:resource="http://purl.org/dc/dcmitype/StillImage" /></cc:Work></rdf:RDF></metadata><defs
   id="defs19" /><sodipodi:namedview
   pagecolor="#ffffff"
   bordercolor="#666666"
   borderopacity="1"
   objecttolerance="10"
   gridtolerance="10"
   guidetolerance="10"
   inkscape:pageopacity="0"
   inkscape:pageshadow="2"
   inkscape:window-width="640"
   inkscape:window-height="480"
   id="namedview17"
   showgrid="false"
   inkscape:zoom="9.0769231"
   inkscape:cx="13"
   inkscape:cy="13"
   inkscape:window-x="0"
   inkscape:window-y="0"
   inkscape:window-maximized="0"
   inkscape:current-layer="Layer_1" />
<g
   id="g3">
	<path
   d="M5.708,14.107H3.735c-0.15,0-0.272,0.124-0.272,0.274v5.717c0,0.15,0.122,0.272,0.272,0.272h1.973   c0.15,0,0.272-0.122,0.272-0.272v-5.717C5.981,14.231,5.859,14.107,5.708,14.107z"
   id="path5" />
	<path
   d="M21.967,14.107h-1.973c-0.15,0-0.271,0.124-0.271,0.274v5.717c0,0.15,0.121,0.272,0.271,0.272h1.973   c0.152,0,0.273-0.122,0.273-0.272v-5.717C22.24,14.231,22.119,14.107,21.967,14.107z"
   id="path7" />
	<path
   d="M9.37,10.839H7.397c-0.15,0-0.273,0.122-0.273,0.273v8.984c0,0.15,0.123,0.272,0.273,0.272H9.37   c0.151,0,0.273-0.122,0.273-0.272v-8.984C9.643,10.96,9.521,10.839,9.37,10.839z"
   id="path9" />
	<path
   d="M17.734,10.839h-1.973c-0.15,0-0.271,0.122-0.271,0.273v8.984c0,0.15,0.121,0.272,0.271,0.272h1.973   c0.152,0,0.273-0.122,0.273-0.272v-8.984C18.008,10.96,17.887,10.839,17.734,10.839z"
   id="path11" />
	<path
   d="M13.473,12.829h-1.974c-0.15,0-0.272,0.123-0.272,0.272v6.994c0,0.15,0.122,0.272,0.272,0.272h1.974   c0.152,0,0.273-0.122,0.273-0.272v-6.994C13.746,12.952,13.625,12.829,13.473,12.829z"
   id="path13" />
	<path
   d="M4.722,10.558c0.581,0,1.051-0.47,1.051-1.051c0-0.101-0.019-0.196-0.046-0.288l2.211-1.591   C8.074,7.692,8.224,7.73,8.384,7.73c0.309,0,0.583-0.135,0.776-0.347l2.087,1.208c-0.012,0.062-0.02,0.126-0.02,0.19   c0,0.58,0.471,1.051,1.051,1.051c0.559,0,1.012-0.438,1.044-0.989l2.814-0.823c0.191,0.262,0.498,0.435,0.848,0.435   c0.232,0,0.443-0.077,0.617-0.205l2.365,1.604c-0.02,0.083-0.037,0.17-0.037,0.26c0,0.581,0.471,1.052,1.051,1.052   s1.053-0.471,1.053-1.052c0-0.581-0.473-1.051-1.053-1.051c-0.232,0-0.443,0.077-0.617,0.204L18,7.666   c0.02-0.084,0.035-0.17,0.035-0.26c0-0.581-0.469-1.051-1.051-1.051c-0.559,0-1.012,0.438-1.045,0.989l-2.813,0.822   c-0.191-0.263-0.499-0.435-0.848-0.435c-0.259,0-0.492,0.096-0.675,0.251L9.431,6.723c0-0.015,0.004-0.028,0.004-0.042   c0-0.581-0.47-1.052-1.051-1.052S7.333,6.099,7.333,6.68c0,0.158,0.038,0.306,0.1,0.441L5.318,8.643   C5.149,8.525,4.944,8.456,4.722,8.456c-0.581,0-1.051,0.471-1.051,1.051C3.671,10.088,4.141,10.558,4.722,10.558z"
   id="path15" />
</g>
</svg>